<?xml version="1.0" encoding="UTF-8" standalone="no"?>
<!-- Created with Inkscape (http://www.inkscape.org/) -->

<svg
   xmlns:osb="http://www.openswatchbook.org/uri/2009/osb"
   xmlns:dc="http://purl.org/dc/elements/1.1/"
   xmlns:cc="http://creativecommons.org/ns#"
   xmlns:rdf="http://www.w3.org/1999/02/22-rdf-syntax-ns#"
   xmlns:svg="http://www.w3.org/2000/svg"
   xmlns="http://www.w3.org/2000/svg"
   xmlns:xlink="http://www.w3.org/1999/xlink"
   xmlns:sodipodi="http://sodipodi.sourceforge.net/DTD/sodipodi-0.dtd"
   xmlns:inkscape="http://www.inkscape.org/namespaces/inkscape"
   width="450"
   height="300"
   id="svg2"
   version="1.1"
   inkscape:version="0.48.3.1 r9886"
   sodipodi:docname="Tan-Cotan.pdf">
  <sodipodi:namedview
     id="base"
     pagecolor="#ffffff"
     bordercolor="#666666"
     borderopacity="1.0"
     inkscape:pageopacity="0.0"
     inkscape:pageshadow="2"
     inkscape:zoom="2.6587215"
     inkscape:cx="199.01732"
     inkscape:cy="155.64181"
     inkscape:document-units="px"
     inkscape:current-layer="layer1"
     showgrid="false"
     inkscape:window-width="1600"
     inkscape:window-height="876"
     inkscape:window-x="1280"
     inkscape:window-y="24"
     inkscape:window-maximized="1" />
  <defs
     id="defs4">
    <linearGradient
       id="linearGradient3960">
      <stop
         style="stop-color:#008000;stop-opacity:0.31896552;"
         offset="0"
         id="stop3962" />
      <stop
         style="stop-color:#008000;stop-opacity:0.96551722;"
         offset="1"
         id="stop3964" />
    </linearGradient>
    <linearGradient
       id="linearGradient3952">
      <stop
         style="stop-color:#00ff00;stop-opacity:0.75862068;"
         offset="0"
         id="stop3954" />
      <stop
         style="stop-color:#00ff00;stop-opacity:0.92241377;"
         offset="1"
         id="stop3956" />
    </linearGradient>
    <linearGradient
       id="linearGradient3821"
       osb:paint="gradient">
      <stop
         id="stop3823"
         offset="0"
         style="stop-color:#00ff00;stop-opacity:1;" />
      <stop
         id="stop3825"
         offset="1"
         style="stop-color:#00ff00;stop-opacity:0;" />
    </linearGradient>
    <filter
       inkscape:collect="always"
       id="filter3855"
       x="-0.021910353"
       width="1.0438207"
       y="-0.10085697"
       height="1.2017139">
      <feGaussianBlur
         inkscape:collect="always"
         stdDeviation="0.80649506"
         id="feGaussianBlur3857" />
    </filter>
    <filter
       inkscape:collect="always"
       id="filter3889">
      <feGaussianBlur
         inkscape:collect="always"
         stdDeviation="0.59065594"
         id="feGaussianBlur3891" />
    </filter>
    <filter
       inkscape:collect="always"
       id="filter3901"
       x="-0.013463837"
       width="1.0269277"
       y="-0.11037159"
       height="1.2207432">
      <feGaussianBlur
         inkscape:collect="always"
         stdDeviation="0.65781469"
         id="feGaussianBlur3903" />
    </filter>
    <radialGradient
       inkscape:collect="always"
       xlink:href="#linearGradient3960"
       id="radialGradient3968"
       cx="148.32585"
       cy="203.36386"
       fx="148.32585"
       fy="203.36386"
       r="59.85154"
       gradientUnits="userSpaceOnUse" />
  </defs>
  <metadata
     id="metadata7">
    <rdf:RDF>
      <cc:Work
         rdf:about="">
        <dc:format>image/svg+xml</dc:format>
        <dc:type
           rdf:resource="http://purl.org/dc/dcmitype/StillImage" />
        <dc:title></dc:title>
      </cc:Work>
    </rdf:RDF>
  </metadata>
  <g
     transform="translate(0,-752.36218)"
     id="layer1"
     inkscape:groupmode="layer"
     inkscape:label="Layer 1">
    <path
       transform="translate(34.345187,741.75558)"
       d="m 220.21325,215.39972 a 59.85154,59.85154 0 1 1 -119.70308,0 59.85154,59.85154 0 1 1 119.70308,0 z"
       sodipodi:ry="59.85154"
       sodipodi:rx="59.85154"
       sodipodi:cy="215.39972"
       sodipodi:cx="160.36171"
       id="path3753"
       style="fill:url(#radialGradient3968);fill-opacity:1"
       sodipodi:type="arc" />
    <path
       sodipodi:nodetypes="ccc"
       inkscape:connector-curvature="0"
       id="path3775"
       d="m 115.15739,856.39258 c 44.27835,7.40779 69.86889,29.96786 82.83251,58.58885 18.85618,-36.19713 39.73267,-52.19122 86.87312,-61.61931"
       style="fill:none;stroke:#000000;stroke-width:1px;stroke-linecap:butt;stroke-linejoin:miter;stroke-opacity:1" />
    <g
       id="g3859">
      <text
         sodipodi:linespacing="125%"
         id="text3075"
         y="1024.1307"
         x="42.388649"
         style="font-size:23.9221077px;font-style:italic;font-variant:normal;font-weight:bold;font-stretch:normal;line-height:125%;letter-spacing:0px;word-spacing:0px;fill:#000000;fill-opacity:1;stroke:none;filter:url(#filter3855);font-family:Impact;-inkscape-font-specification:Impact Bold Italic"
         xml:space="preserve"><tspan
           y="1024.1307"
           x="42.388649"
           id="tspan3077"
           sodipodi:role="line">Manifold</tspan></text>
      <text
         xml:space="preserve"
         style="font-size:23.9221077px;font-style:italic;font-variant:normal;font-weight:bold;font-stretch:normal;line-height:125%;letter-spacing:0px;word-spacing:0px;fill:#008000;fill-opacity:1;stroke:none;font-family:Impact;-inkscape-font-specification:Impact Bold Italic"
         x="41.856735"
         y="1023.5989"
         id="text3797"
         sodipodi:linespacing="125%"><tspan
           sodipodi:role="line"
           id="tspan3799"
           x="41.856735"
           y="1023.5989">Manifold</tspan></text>
    </g>
    <g
       id="g3911">
      <text
         sodipodi:linespacing="125%"
         id="text3873"
         y="807.52551"
         x="41.690849"
         style="font-size:12px;font-style:normal;font-weight:normal;line-height:125%;letter-spacing:0px;word-spacing:0px;fill:#000000;fill-opacity:1;stroke:none;font-family:Sans;filter:url(#filter3889)"
         xml:space="preserve"><tspan
           y="807.52551"
           x="41.690849"
           id="tspan3875"
           sodipodi:role="line"
           style="font-style:normal;font-variant:normal;font-weight:bold;font-stretch:normal;fill:#000000;font-family:Purisa;-inkscape-font-specification:Purisa Bold">Tangent Space</tspan></text>
      <text
         xml:space="preserve"
         style="font-size:12px;font-style:normal;font-weight:normal;line-height:125%;letter-spacing:0px;word-spacing:0px;fill:#000080;fill-opacity:1;stroke:none;font-family:Sans"
         x="41.314728"
         y="806.77325"
         id="text3801"
         sodipodi:linespacing="125%"><tspan
           style="-inkscape-font-specification:Purisa Bold;font-family:Purisa;font-weight:bold;font-style:normal;font-stretch:normal;font-variant:normal;fill:#000080"
           sodipodi:role="line"
           id="tspan3803"
           x="41.314728"
           y="806.77325">Tangent Space</tspan></text>
    </g>
    <g
       id="g3905">
      <text
         sodipodi:linespacing="125%"
         id="text3893"
         y="802.1189"
         x="271.53403"
         style="font-size:12px;font-style:normal;font-variant:normal;font-weight:bold;font-stretch:normal;line-height:125%;letter-spacing:0px;word-spacing:0px;fill:#000000;fill-opacity:1;stroke:none;filter:url(#filter3901);font-family:Purisa;-inkscape-font-specification:Purisa Bold"
         xml:space="preserve"><tspan
           y="802.1189"
           x="271.53403"
           id="tspan3895"
           sodipodi:role="line">Cotangent Space</tspan></text>
      <text
         xml:space="preserve"
         style="font-size:12px;font-style:normal;font-weight:bold;line-height:125%;letter-spacing:0px;word-spacing:0px;fill:#800080;fill-opacity:1;stroke:none;font-family:Purisa;-inkscape-font-specification:Purisa Bold;font-stretch:normal;font-variant:normal"
         x="270.7818"
         y="801.7428"
         id="text3805"
         sodipodi:linespacing="125%"><tspan
           sodipodi:role="line"
           id="tspan3807"
           x="270.7818"
           y="801.7428">Cotangent Space</tspan></text>
    </g>
    <text
       sodipodi:linespacing="125%"
       id="text3809"
       y="925.58807"
       x="199.00005"
       style="font-size:12px;font-style:normal;font-weight:normal;line-height:125%;letter-spacing:0px;word-spacing:0px;fill:#000000;fill-opacity:1;stroke:none;font-family:Sans"
       xml:space="preserve"><tspan
         y="925.58807"
         x="199.00005"
         id="tspan3811"
         sodipodi:role="line">p</tspan></text>
    <g
       id="g3352">
      <g
         text-anchor="start"
         word-spacing="normal"
         letter-spacing="normal"
         font-size-adjust="none"
         font-stretch="normal"
         font-weight="normal"
         font-variant="normal"
         font-style="normal"
         fill-opacity="1"
         fill-rule="evenodd"
         fill="none"
         stroke-opacity="1"
         stroke-dashoffset="0"
         stroke-dasharray="none"
         stroke-miterlimit="10.433"
         stroke-linejoin="miter"
         stroke-linecap="butt"
         stroke="black"
         xml:space="preserve"
         transform="matrix(0.428571428571,0,0,-0.428571428571,-75.0,337.5)"
         id="content"><path
           id="path3355"
           fill="black"
           stroke-width="0"
           d="M475.2,425.58 H480.83 C479.18,418.21,478.74,416.07,478.74,412.73 C478.74,411.98,478.74,410.64,479.14,408.94 C479.63,406.75,480.18,406.45,480.93,406.45 C481.93,406.45,482.97,407.35,482.97,408.34 C482.97,408.64,482.97,408.74,482.67,409.44 C481.23,413.03,481.23,416.27,481.23,417.66 C481.23,420.3,481.58,422.99,482.12,425.58 H487.8 C488.45,425.58,490.24,425.58,490.24,427.27 C490.24,428.47,489.2,428.47,488.25,428.47 H471.56 C470.47,428.47,468.57,428.47,466.38,426.13 C464.64,424.18,463.34,421.89,463.34,421.64 C463.34,421.59,463.34,421.15,463.94,421.15 C464.34,421.15,464.44,421.35,464.74,421.75 C467.18,425.58,470.07,425.58,471.07,425.58 H473.91 C472.31,419.55,469.62,413.53,467.53,408.99 C467.13,408.25,467.13,408.14,467.13,407.8 C467.13,406.85,467.93,406.45,468.57,406.45 C470.07,406.45,470.47,407.85,471.07,409.69 C471.76,411.98,471.76,412.08,472.41,414.57 Z " /><path
           id="path3357"
           fill="black"
           stroke-width="0"
           d="M509.61,432.35 H508.42 C508.32,431.58,507.97,429.52,507.52,429.17 C507.24,428.96,504.55,428.96,504.07,428.96 H497.65 C501.31,432.21,502.53,433.18,504.62,434.82 C507.2,436.88,509.61,439.04,509.61,442.36 C509.61,446.57,505.91,449.15,501.45,449.15 C497.12,449.15,494.2,446.12,494.2,442.91 C494.2,441.13,495.7,440.96,496.04,440.96 C496.88,440.96,497.89,441.55,497.89,442.81 C497.89,443.43,497.65,444.66,495.84,444.66 C496.92,447.13,499.29,447.9,500.93,447.9 C504.41,447.9,506.23,445.18,506.23,442.36 C506.23,439.32,504.07,436.91,502.95,435.66 L494.55,427.36 C494.2,427.05,494.2,426.98,494.2,426 H508.56 Z " /><polyline
           id="polyline3359"
           fill-rule="nonzero"
           fill="black"
           stroke-width="0"
           points="462,385 514.56,385 514.56,387.04 462,387.04 " /><path
           id="path3361"
           fill="black"
           stroke-width="0"
           d="M481.57,356.34 V357.54 C481.57,370.14,487.75,371.93,490.29,371.93 C491.49,371.93,493.58,371.63,494.68,369.94 C493.93,369.94,491.94,369.94,491.94,367.7 C491.94,366.15,493.13,365.41,494.23,365.41 C495.02,365.41,496.52,365.85,496.52,367.8 C496.52,370.79,494.33,373.18,490.19,373.18 C483.82,373.18,477.09,366.75,477.09,355.74 C477.09,342.44,482.87,338.9,487.5,338.9 C493.03,338.9,497.77,343.59,497.77,350.16 C497.77,356.49,493.33,361.27,487.8,361.27 L487.75,360.12 C488.55,360.12,490.84,360.12,492.39,357.04 C493.28,355.19,493.28,352.65,493.28,350.21 C493.28,347.82,493.28,345.33,492.43,343.54 C490.94,340.55,488.65,340.3,487.5,340.3 H487.5 C484.36,340.3,482.87,343.29,482.57,344.04 C481.68,346.38,481.68,350.36,481.68,351.26 C481.68,355.14,483.27,360.12,487.75,360.12 L487.8,361.27 C484.41,361.27,482.57,358.73,481.57,356.34 Z " /><path
           id="path3363"
           fill="black"
           stroke-width="0"
           d="M568.22,390.29 L568.36,390.29 L568.51,390.29 L568.66,390.3 L568.73,390.3 L568.8,390.3 L568.87,390.31 L568.95,390.32 L569.02,390.33 L569.09,390.34 L569.15,390.36 L569.22,390.37 L569.29,390.39 L569.35,390.41 L569.41,390.44 L569.47,390.47 L569.52,390.5 L569.58,390.53 L569.63,390.57 L569.67,390.61 L569.72,390.66 L569.75,390.71 L569.77,390.74 L569.79,390.76 L569.81,390.79 L569.82,390.82 L569.84,390.85 L569.85,390.89 L569.86,390.92 L569.87,390.96 L569.88,390.99 L569.89,391.03 L569.9,391.07 L569.9,391.11 L569.91,391.15 L569.91,391.19 L569.91,391.24 L569.91,391.29 C569.91,392.28,568.97,392.28,568.27,392.28 H538.43 C537.73,392.28,536.79,392.28,536.79,391.29 C536.79,390.29,537.73,390.29,538.48,390.29 Z " /><path
           id="path3365"
           fill="black"
           stroke-width="0"
           d="M568.27,380.62 L568.4,380.63 L568.54,380.63 L568.68,380.63 L568.75,380.64 L568.82,380.64 L568.89,380.65 L568.96,380.66 L569.03,380.67 L569.1,380.68 L569.16,380.69 L569.23,380.71 L569.29,380.73 L569.35,380.75 L569.41,380.77 L569.47,380.8 L569.53,380.83 L569.58,380.87 L569.63,380.91 L569.67,380.95 L569.72,380.99 L569.74,381.02 L569.76,381.05 L569.77,381.07 L569.79,381.1 L569.81,381.13 L569.82,381.16 L569.84,381.19 L569.85,381.22 L569.86,381.26 L569.87,381.29 L569.88,381.33 L569.89,381.37 L569.9,381.41 L569.9,381.45 L569.91,381.49 L569.91,381.53 L569.91,381.58 L569.91,381.62 C569.91,382.62,568.97,382.62,568.22,382.62 H538.48 C537.73,382.62,536.79,382.62,536.79,381.62 C536.79,380.62,537.73,380.62,538.43,380.62 Z " /><path
           id="path3367"
           fill="black"
           stroke-width="0"
           d="M612.82,408.57 L605.65,408.02 V406.48 C609.13,406.48,609.53,406.13,609.53,403.69 V377.79 C609.53,375.54,608.98,375.54,605.65,375.54 V374 H616.7 V375.54 C613.36,375.54,612.82,375.54,612.82,377.79 Z " /><path
           id="path3369"
           fill="black"
           stroke-width="0"
           d="M626.82,396.02 L619.84,395.47 V393.93 C623.08,393.93,623.53,393.62,623.53,391.18 V377.79 C623.53,375.54,622.98,375.54,619.65,375.54 V374 H630.3 V375.54 C627.02,375.54,626.82,375.79,626.82,377.73 Z " /><path
           id="path3371"
           fill="black"
           stroke-width="0"
           d="M627.02,404.68 L627.01,404.83 L627,404.98 L626.98,405.12 L626.96,405.25 L626.93,405.39 L626.89,405.52 L626.85,405.65 L626.8,405.77 L626.74,405.89 L626.68,406 L626.62,406.11 L626.55,406.22 L626.47,406.32 L626.39,406.42 L626.31,406.51 L626.22,406.6 L626.13,406.69 L626.03,406.76 L625.93,406.84 L625.82,406.91 L625.72,406.97 L625.61,407.03 L625.49,407.09 L625.38,407.14 L625.26,407.18 L625.14,407.22 L625.01,407.25 L624.89,407.28 L624.76,407.3 L624.63,407.31 L624.51,407.32 L624.38,407.32 C622.83,407.32,621.73,405.98,621.73,404.68 C621.73,403.34,622.83,402.04,624.38,402.04 C625.77,402.04,627.02,403.09,627.02,404.68 Z " /><path
           id="path3373"
           fill="black"
           stroke-width="0"
           d="M636.48,391.14 V377.79 C636.48,375.54,635.93,375.54,632.59,375.54 V374 H643.8 V375.54 C640.47,375.54,639.92,375.54,639.92,377.79 V386.95 C639.92,392.13,643.45,394.92,646.64,394.92 C649.78,394.92,650.33,392.23,650.33,389.39 V377.79 C650.33,375.54,649.78,375.54,646.44,375.54 V374 H657.65 V375.54 C654.31,375.54,653.77,375.54,653.77,377.79 V386.95 C653.77,392.13,657.3,394.92,660.49,394.92 C663.63,394.92,664.18,392.23,664.18,389.39 V377.79 C664.18,375.54,663.63,375.54,660.29,375.54 V374 H671.5 V375.54 C668.91,375.54,667.66,375.54,667.61,377.04 V386.55 C667.61,390.84,667.61,392.38,666.07,394.18 C665.37,395.02,663.73,396.02,660.84,396.02 C656.65,396.02,654.46,393.03,653.61,391.14 C652.92,395.47,649.23,396.02,646.99,396.02 C643.35,396.02,641.01,393.88,639.62,390.79 V396.02 L632.59,395.47 V393.93 C636.08,393.93,636.48,393.58,636.48,391.14 Z " /><path
           id="path3375"
           fill="black"
           stroke-width="0"
           d="M590.25,346.2 L590.24,346.15 L590.23,346.11 L590.21,346.06 L590.2,346.01 L590.18,345.96 L590.17,345.9 L590.15,345.85 L590.14,345.8 L590.11,345.68 L590.08,345.57 L590.05,345.46 L590.03,345.35 L590.01,345.3 L590,345.24 L589.99,345.19 L589.98,345.14 L589.97,345.1 L589.96,345.05 L589.95,345.01 L589.94,344.97 L589.93,344.93 L589.93,344.9 L589.92,344.87 L589.92,344.84 L589.91,344.81 L589.91,344.79 L589.91,344.79 L589.91,344.78 L589.91,344.77 L589.91,344.77 C589.91,344,590.53,343.65,591.09,343.65 C591.72,343.65,592.28,344.11,592.45,344.42 C592.62,344.73,592.9,345.85,593.08,346.58 C593.25,347.24,593.64,348.85,593.84,349.72 C594.05,350.48,594.27,351.25,594.44,352.05 C594.82,353.48,594.89,353.76,595.9,355.19 C596.88,356.59,598.52,358.4,601.13,358.4 C603.16,358.4,603.19,356.62,603.19,355.96 C603.19,353.87,601.69,350,601.13,348.53 C600.75,347.56,600.61,347.24,600.61,346.65 C600.61,344.8,602.15,343.65,603.92,343.65 C607.41,343.65,608.95,348.46,608.95,348.98 C608.95,349.44,608.49,349.44,608.39,349.44 C607.9,349.44,607.86,349.23,607.72,348.85 C606.92,346.06,605.42,344.63,604.03,344.63 C603.3,344.63,603.16,345.12,603.16,345.85 C603.16,346.65,603.33,347.1,603.96,348.67 C604.38,349.75,605.8,353.45,605.8,355.4 C605.8,358.79,603.12,359.38,601.27,359.38 C598.38,359.38,596.43,357.6,595.38,356.2 C595.14,358.61,593.08,359.38,591.65,359.38 C590.15,359.38,589.35,358.3,588.9,357.5 C588.13,356.2,587.64,354.21,587.64,354.04 C587.64,353.59,588.13,353.59,588.23,353.59 C588.72,353.59,588.75,353.7,589,354.64 C589.52,356.69,590.18,358.4,591.54,358.4 C592.45,358.4,592.7,357.63,592.7,356.69 C592.7,356.03,592.38,354.74,592.14,353.8 C591.9,352.86,591.54,351.43,591.37,350.66 Z " /><path
           id="path3377"
           fill="black"
           stroke-width="0"
           d="M643.08,351.88 L642.68,351.57 L642.3,351.26 L641.94,350.95 L641.6,350.62 L641.29,350.3 L640.99,349.97 L640.71,349.64 L640.45,349.31 L640.2,348.98 L639.98,348.65 L639.77,348.33 L639.57,348.01 L639.39,347.69 L639.23,347.38 L639.08,347.08 L638.94,346.79 L638.82,346.5 L638.7,346.22 L638.6,345.96 L638.51,345.71 L638.43,345.47 L638.37,345.25 L638.31,345.04 L638.26,344.85 L638.21,344.68 L638.18,344.53 L638.15,344.4 L638.13,344.28 L638.11,344.19 L638.1,344.13 L638.1,344.09 L638.09,344.07 C638.09,343.55,638.44,343.55,638.93,343.55 C639.56,343.55,639.66,343.55,639.84,344.14 C640.05,345.01,640.6,347.24,642.42,349.16 C644.44,351.29,646.18,351.81,647.65,352.27 C647.85,352.33,648,352.54,648,352.72 C648,353.07,647.78,353.14,647.33,353.27 C642.31,354.88,640.53,358.44,639.8,361.5 C639.66,361.92,639.42,361.92,638.93,361.92 C638.44,361.92,638.09,361.92,638.09,361.4 C638.09,361.33,638.44,358.99,640.15,356.59 C640.95,355.4,641.93,354.43,643.08,353.59 H615.08 C614.52,353.59,613.68,353.59,613.68,352.75 C613.68,351.88,614.49,351.88,615.08,351.88 Z " /><path
           id="path3379"
           fill="black"
           stroke-width="0"
           d="M671.16,353.55 L670.99,353.75 L670.82,353.94 L670.67,354.12 L670.52,354.3 L670.38,354.46 L670.24,354.62 L670.11,354.77 L669.98,354.91 L669.86,355.05 L669.74,355.18 L669.62,355.31 L669.51,355.43 L669.4,355.54 L669.3,355.65 L669.19,355.76 L669.09,355.86 L668.89,356.05 L668.7,356.24 L668.5,356.41 L668.31,356.58 L668.1,356.74 L667.89,356.91 L667.78,356.99 L667.66,357.08 L667.54,357.16 L667.42,357.25 C665.3,358.79,663.07,359.38,661.15,359.38 C656.82,359.38,653.68,355.68,653.68,351.5 H654.66 C654.66,354.84,657.38,357.46,660.59,357.46 C663.83,357.46,666.06,354.81,669.41,350.77 H669.41 C668.02,348.5,664.98,344.98,660.73,344.98 C657.14,344.98,654.66,348.15,654.66,351.5 H653.68 C653.68,347.42,656.68,343.65,661.04,343.65 C665.89,343.65,669.27,347.62,670.53,349.47 C672.38,347.31,672.93,346.72,674.26,345.78 C676.39,344.24,678.62,343.65,680.53,343.65 C684.86,343.65,688,347.35,688,351.53 H687.02 C687.02,348.18,684.3,345.57,681.09,345.57 C677.85,345.57,675.62,348.22,672.27,352.27 H672.27 C673.66,354.53,676.7,358.05,680.95,358.05 C684.54,358.05,687.02,354.88,687.02,351.53 H688 C688,355.61,685,359.38,680.64,359.38 C675.79,359.38,672.41,355.4,671.16,353.55 Z " /><path
           id="path3381"
           fill="black"
           stroke-width="0"
           d="M727.25,438.2 L727.24,438.15 L727.23,438.11 L727.21,438.06 L727.2,438.01 L727.18,437.96 L727.17,437.9 L727.15,437.85 L727.14,437.8 L727.11,437.68 L727.08,437.57 L727.05,437.46 L727.03,437.35 L727.01,437.3 L727,437.24 L726.99,437.19 L726.98,437.14 L726.97,437.1 L726.96,437.05 L726.95,437.01 L726.94,436.97 L726.93,436.93 L726.93,436.9 L726.92,436.87 L726.92,436.84 L726.91,436.81 L726.91,436.79 L726.91,436.79 L726.91,436.78 L726.91,436.77 L726.91,436.77 C726.91,436,727.53,435.65,728.09,435.65 C728.72,435.65,729.28,436.11,729.45,436.42 C729.62,436.73,729.9,437.85,730.08,438.58 C730.25,439.24,730.64,440.85,730.84,441.72 C731.05,442.48,731.27,443.25,731.44,444.05 C731.82,445.48,731.89,445.76,732.9,447.19 C733.88,448.59,735.52,450.4,738.13,450.4 C740.16,450.4,740.19,448.62,740.19,447.96 C740.19,445.87,738.69,442,738.13,440.53 C737.75,439.56,737.61,439.24,737.61,438.65 C737.61,436.8,739.15,435.65,740.92,435.65 C744.41,435.65,745.95,440.46,745.95,440.98 C745.95,441.44,745.49,441.44,745.39,441.44 C744.9,441.44,744.86,441.23,744.72,440.85 C743.92,438.06,742.42,436.63,741.03,436.63 C740.3,436.63,740.16,437.12,740.16,437.85 C740.16,438.65,740.33,439.1,740.96,440.67 C741.38,441.75,742.8,445.45,742.8,447.4 C742.8,450.79,740.12,451.38,738.27,451.38 C735.38,451.38,733.43,449.6,732.38,448.2 C732.14,450.61,730.08,451.38,728.65,451.38 C727.15,451.38,726.35,450.3,725.9,449.5 C725.13,448.2,724.64,446.21,724.64,446.04 C724.64,445.59,725.13,445.59,725.23,445.59 C725.72,445.59,725.75,445.7,726,446.64 C726.52,448.69,727.18,450.4,728.54,450.4 C729.45,450.4,729.7,449.63,729.7,448.69 C729.7,448.03,729.38,446.74,729.14,445.8 C728.9,444.86,728.54,443.43,728.37,442.66 Z " /><path
           id="path3383"
           fill="black"
           stroke-width="0"
           d="M762.06,351.26 L768.09,367.2 H766.84 C764.9,362.02,759.62,358.63,753.9,357.14 C752.85,356.89,747.97,355.59,738.4,355.59 H708.36 L733.72,385.33 C734.07,385.73,734.17,385.88,734.17,386.13 C734.17,386.23,734.17,386.38,733.82,386.88 L710.6,418.61 H737.9 C744.58,418.61,749.11,417.91,749.56,417.81 C752.25,417.41,756.59,416.57,760.52,414.07 C761.77,413.28,765.15,411.04,766.84,407 H768.09 L762.06,421 H703.18 C702.04,421,701.99,420.95,701.84,420.65 C701.79,420.5,701.79,419.55,701.79,419.01 L728.14,382.94 L702.34,352.71 C701.84,352.11,701.84,351.86,701.84,351.81 C701.84,351.26,702.29,351.26,703.18,351.26 Z " /><path
           id="path3385"
           fill="black"
           stroke-width="0"
           d="M709.91,337.15 L709.92,337.16 L709.92,337.16 L709.92,337.16 L709.92,337.17 L709.92,337.18 L709.93,337.18 L709.93,337.19 L709.93,337.19 L709.93,337.21 L709.94,337.23 L709.95,337.25 L709.95,337.26 L709.96,337.28 L709.96,337.31 L709.97,337.33 L709.97,337.35 L709.98,337.37 L709.99,337.4 L710,337.44 L710.01,337.49 L710.01,337.52 L710.02,337.54 L710.02,337.56 L710.03,337.58 L710.03,337.6 L710.04,337.62 L710.04,337.64 L710.04,337.65 L710.05,337.66 L710.05,337.67 L710.05,337.67 L710.05,337.68 L710.05,337.69 L710.05,337.69 L710.05,337.7 L710.05,337.7 L710.05,337.7 L710.05,337.71 L710.05,337.71 L710.05,337.71 C710.05,337.89,709.91,338.2,709.5,338.2 C708.8,338.2,705.9,337.92,705.03,337.85 C704.75,337.82,704.27,337.78,704.27,337.05 C704.27,336.56,704.75,336.56,705.17,336.56 C706.84,336.56,706.84,336.32,706.84,336.04 C706.84,335.79,706.78,335.58,706.71,335.27 L701.79,315.54 C701.61,314.91,701.61,314.84,701.61,314.77 C701.61,314.24,702.03,313.65,702.8,313.65 C703.74,313.65,704.2,314.35,704.41,315.12 C704.47,315.25,705.97,321.39,706.11,321.88 C708.59,321.64,710.58,320.84,710.58,319.02 C710.58,318.85,710.58,318.67,710.51,318.32 C710.37,317.8,710.37,317.62,710.37,317.24 C710.37,314.77,712.39,313.65,714.06,313.65 C717.45,313.65,718.49,318.95,718.49,318.98 C718.49,319.44,718.04,319.44,717.93,319.44 C717.45,319.44,717.41,319.27,717.24,318.6 C716.82,317.1,715.88,314.63,714.17,314.63 C713.23,314.63,712.95,315.5,712.95,316.44 C712.95,317.04,712.95,317.1,713.16,318.01 C713.19,318.11,713.33,318.71,713.33,319.09 C713.33,322.2,709.15,322.68,707.68,322.79 C708.7,323.41,709.98,324.57,710.58,325.09 C712.35,326.76,714.1,328.4,716.05,328.4 C716.47,328.4,716.92,328.3,717.2,327.95 C715.7,327.7,715.39,326.52,715.39,326 C715.39,325.23,715.98,324.7,716.78,324.7 C717.73,324.7,718.77,325.47,718.77,326.94 C718.77,328.09,717.93,329.38,716.09,329.38 C714.1,329.38,712.28,327.95,710.51,326.31 C709.04,324.91,707.89,323.83,706.46,323.24 Z " /><path
           id="path3387"
           fill="black"
           stroke-width="0"
           d="M747.78,325.71 L747.83,325.72 L747.88,325.72 L747.93,325.72 L747.99,325.72 L748.1,325.72 L748.15,325.72 L748.21,325.73 L748.26,325.73 L748.32,325.74 L748.37,325.75 L748.43,325.76 L748.48,325.77 L748.54,325.79 L748.59,325.8 L748.64,325.82 L748.69,325.85 L748.73,325.87 L748.78,325.9 L748.82,325.93 L748.86,325.96 L748.9,326 L748.94,326.04 L748.96,326.06 L748.97,326.08 L748.99,326.11 L749,326.13 L749.01,326.16 L749.03,326.18 L749.04,326.21 L749.05,326.24 L749.06,326.27 L749.07,326.3 L749.08,326.33 L749.08,326.36 L749.09,326.4 L749.1,326.43 L749.1,326.47 L749.1,326.51 L749.1,326.55 L749.1,326.59 C749.1,327.43,748.27,327.43,747.81,327.43 H724.73 C724.28,327.43,723.44,327.43,723.44,326.59 C723.44,325.71,724.24,325.71,724.77,325.71 Z " /><path
           id="path3389"
           fill="black"
           stroke-width="0"
           d="M747.81,318.04 L747.86,318.04 L747.9,318.04 L747.95,318.04 L748,318.04 L748.05,318.05 L748.1,318.05 L748.15,318.05 L748.21,318.06 L748.26,318.06 L748.31,318.07 L748.37,318.08 L748.42,318.09 L748.48,318.1 L748.53,318.11 L748.58,318.13 L748.63,318.15 L748.68,318.17 L748.73,318.19 L748.77,318.22 L748.82,318.25 L748.86,318.28 L748.9,318.32 L748.93,318.35 L748.95,318.38 L748.97,318.4 L748.98,318.42 L749,318.44 L749.01,318.47 L749.02,318.49 L749.04,318.52 L749.05,318.55 L749.06,318.58 L749.07,318.61 L749.08,318.64 L749.08,318.67 L749.09,318.7 L749.1,318.74 L749.1,318.77 L749.1,318.81 L749.1,318.84 L749.1,318.88 C749.1,319.75,748.3,319.75,747.78,319.75 H724.77 C724.24,319.75,723.44,319.75,723.44,318.88 C723.44,318.04,724.28,318.04,724.73,318.04 Z " /><path
           id="path3391"
           fill="black"
           stroke-width="0"
           d="M762.68,336.18 L762.68,336.22 L762.68,336.26 L762.68,336.3 L762.68,336.34 L762.68,336.38 L762.68,336.42 L762.68,336.45 L762.68,336.49 L762.67,336.52 L762.67,336.55 L762.67,336.59 L762.67,336.62 L762.66,336.64 L762.66,336.67 L762.66,336.7 L762.65,336.73 L762.65,336.75 L762.65,336.77 L762.63,336.82 L762.62,336.86 L762.61,336.9 L762.59,336.93 L762.57,336.96 L762.55,336.99 L762.52,337.02 L762.5,337.04 L762.47,337.06 L762.43,337.08 L762.4,337.09 L762.36,337.1 L762.31,337.12 L762.26,337.12 L762.24,337.13 L762.21,337.13 L762.18,337.14 L762.16,337.14 L762.13,337.14 L762.1,337.14 L762.06,337.14 L762.03,337.15 L762,337.15 L761.96,337.15 L761.93,337.15 L761.89,337.15 L761.85,337.15 L761.81,337.15 L761.77,337.15 L761.73,337.15 L761.68,337.15 L761.64,337.15 C759.4,334.96,756.23,334.92,754.8,334.92 V333.67 C755.64,333.67,757.94,333.67,759.85,334.64 V316.86 C759.85,315.71,759.85,315.25,756.37,315.25 H755.04 V314 H767.49 V315.25 H766.17 C762.68,315.25,762.68,315.71,762.68,316.86 Z " /><path
           id="path3393"
           fill="black"
           stroke-width="0"
           d="M812.65,438.88 L812.65,438.93 L812.64,438.99 L812.64,439.04 L812.64,439.09 L812.64,439.14 L812.64,439.19 L812.64,439.23 L812.64,439.28 L812.64,439.32 L812.64,439.36 L812.64,439.4 L812.64,439.44 L812.64,439.48 L812.63,439.52 L812.63,439.55 L812.63,439.59 L812.62,439.62 L812.62,439.65 L812.61,439.71 L812.6,439.76 L812.58,439.81 L812.57,439.86 L812.55,439.9 L812.53,439.94 L812.5,439.98 L812.47,440.01 L812.44,440.03 L812.41,440.06 L812.37,440.08 L812.32,440.1 L812.3,440.11 L812.27,440.12 L812.25,440.12 L812.22,440.13 L812.19,440.14 L812.16,440.14 L812.13,440.15 L812.1,440.15 L812.07,440.16 L812.03,440.16 L811.99,440.16 L811.96,440.16 L811.92,440.17 L811.88,440.17 L811.84,440.17 L811.79,440.17 L811.75,440.17 L811.7,440.17 L811.65,440.18 L811.6,440.18 L811.55,440.18 L811.5,440.18 C808.41,436.99,804.03,436.99,802.43,436.99 V435.44 C803.43,435.44,806.37,435.44,808.96,436.74 V410.93 C808.96,409.14,808.81,408.54,804.33,408.54 H802.73 V407 H818.87 V408.54 H817.28 C812.79,408.54,812.65,409.09,812.65,410.93 Z " /><polyline
           id="polyline3395"
           fill-rule="nonzero"
           fill="black"
           stroke-width="0"
           points="786,385 835.92,385 835.92,387.04 786,387.04 " /><path
           id="path3397"
           fill="black"
           stroke-width="0"
           d="M800.3,374.02 L800.3,374.03 L800.3,374.03 L800.3,374.04 L800.3,374.05 L800.3,374.06 L800.29,374.07 L800.29,374.09 L800.29,374.11 L800.29,374.13 L800.28,374.15 L800.28,374.17 L800.27,374.19 L800.26,374.22 L800.25,374.24 L800.24,374.27 L800.23,374.29 L800.22,374.31 L800.2,374.34 L800.18,374.36 L800.16,374.39 L800.14,374.41 L800.13,374.42 L800.11,374.43 L800.1,374.44 L800.09,374.45 L800.07,374.46 L800.06,374.47 L800.04,374.48 L800.02,374.49 L800.01,374.5 L799.99,374.51 L799.97,374.52 L799.95,374.52 L799.93,374.53 L799.91,374.54 L799.89,374.54 L799.86,374.55 L799.84,374.55 L799.81,374.56 L799.79,374.56 L799.76,374.56 L799.74,374.57 L799.71,374.57 L799.68,374.57 L799.65,374.57 C798.5,374.57,794.87,374.17,793.57,374.07 C793.17,374.02,792.62,373.97,792.62,373.07 C792.62,372.48,793.07,372.48,793.82,372.48 C796.21,372.48,796.31,372.13,796.31,371.63 L796.16,370.64 L788.94,341.94 C788.74,341.25,788.74,341.14,788.74,340.85 C788.74,339.7,789.73,339.45,790.18,339.45 C790.83,339.45,791.58,339.9,791.88,340.5 C792.13,340.95,794.37,350.16,794.67,351.41 C796.36,351.26,800.45,350.46,800.45,347.17 C800.45,346.82,800.45,346.62,800.3,346.13 C800.2,345.53,800.1,344.93,800.1,344.38 C800.1,341.45,802.09,339.45,804.68,339.45 C806.18,339.45,807.52,340.25,808.61,342.09 C809.86,344.29,810.41,347.02,810.41,347.12 C810.41,347.62,809.96,347.62,809.81,347.62 C809.31,347.62,809.26,347.42,809.11,346.73 C808.12,343.09,806.97,340.55,804.78,340.55 C803.83,340.55,803.18,341.1,803.18,342.89 C803.18,343.73,803.39,344.88,803.59,345.68 C803.78,346.53,803.78,346.73,803.78,347.22 C803.78,350.46,800.65,351.91,796.41,352.45 C797.96,353.35,799.55,354.95,800.7,356.14 C803.09,358.78,805.38,360.92,807.82,360.92 C808.12,360.92,808.17,360.92,808.27,360.87 C808.86,360.77,808.91,360.77,809.31,360.47 C809.41,360.42,809.41,360.38,809.51,360.27 C807.12,360.12,806.67,358.18,806.67,357.59 C806.67,356.79,807.22,355.84,808.57,355.84 C809.86,355.84,811.3,356.94,811.3,358.88 C811.3,360.38,810.16,362.02,807.92,362.02 C806.52,362.02,804.23,361.62,800.65,357.63 C798.95,355.74,797.01,353.75,795.12,353 Z " /><path
           id="path3399"
           fill="black"
           stroke-width="0"
           d="M830.61,360.35 H829.42 C829.32,359.58,828.97,357.52,828.52,357.17 C828.24,356.96,825.55,356.96,825.07,356.96 H818.65 C822.31,360.21,823.53,361.18,825.62,362.82 C828.2,364.88,830.61,367.04,830.61,370.36 C830.61,374.57,826.91,377.15,822.45,377.15 C818.12,377.15,815.2,374.12,815.2,370.91 C815.2,369.13,816.7,368.96,817.04,368.96 C817.88,368.96,818.9,369.55,818.9,370.81 C818.9,371.43,818.65,372.66,816.84,372.66 C817.92,375.13,820.29,375.9,821.93,375.9 C825.41,375.9,827.23,373.18,827.23,370.36 C827.23,367.32,825.07,364.91,823.95,363.66 L815.55,355.36 C815.2,355.05,815.2,354.98,815.2,354 H829.56 Z " /></g>    </g>
    <g
       id="g4352">
      <g
         text-anchor="start"
         word-spacing="normal"
         letter-spacing="normal"
         font-size-adjust="none"
         font-stretch="normal"
         font-weight="normal"
         font-variant="normal"
         font-style="normal"
         fill-opacity="1"
         fill-rule="evenodd"
         fill="none"
         stroke-opacity="1"
         stroke-dashoffset="0"
         stroke-dasharray="none"
         stroke-miterlimit="10.433"
         stroke-linejoin="miter"
         stroke-linecap="butt"
         stroke="black"
         xml:space="preserve"
         transform="matrix(0.428571428571,0,0,-0.428571428571,-75.0,337.5)"
         id="g4354"><path
           id="path4356"
           fill="black"
           stroke-width="0"
           d="M479.72,438.53 L478.93,439.27 C478.93,439.23,477.03,436.88,474.84,436.88 C473.7,436.88,472.45,437.63,471.6,438.13 C470.26,438.93,469.36,439.27,468.52,439.27 C466.62,439.27,465.68,438.18,463.13,435.39 L463.93,434.64 C463.93,434.69,465.82,437.04,468.02,437.04 C469.16,437.04,470.41,436.29,471.25,435.79 C472.6,434.99,473.5,434.64,474.34,434.64 C476.23,434.64,477.18,435.74,479.72,438.53 Z " /><path
           id="path4358"
           fill="black"
           stroke-width="0"
           d="M486.14,424.53 L486.13,424.74 L486.13,424.94 L486.11,425.14 L486.1,425.32 L486.07,425.51 L486.05,425.69 L486.02,425.86 L485.98,426.02 L485.94,426.18 L485.9,426.33 L485.85,426.48 L485.8,426.62 L485.74,426.75 L485.68,426.88 L485.62,427 L485.55,427.11 L485.48,427.22 L485.41,427.32 L485.34,427.42 L485.26,427.5 L485.18,427.59 L485.09,427.66 L485.01,427.73 L484.92,427.79 L484.83,427.84 L484.74,427.89 L484.64,427.93 L484.55,427.96 L484.45,427.98 L484.35,428 L484.25,428.01 L484.14,428.02 C482.85,428.02,481.5,426.82,481.5,425.68 C481.5,425.18,481.75,424.63,482.25,424.18 C483.1,423.43,484,422.09,484,420 C484,418,483.05,415.16,481.5,412.88 C480.01,410.73,478.17,409.04,475.82,409.04 C472.98,409.04,471.44,410.83,470.99,413.52 C471.54,414.82,472.69,418,472.69,419.4 C472.69,420,472.44,420.5,471.79,420.5 C471.39,420.5,470.84,420.39,470.45,419.65 C469.9,418.65,469.3,415.41,469.3,413.62 C467.66,411.28,465.66,409.04,462.53,409.04 C459.24,409.04,458.19,411.98,458.19,414.77 C458.19,420.99,463.27,426.22,463.27,426.87 C463.27,427.42,462.88,427.82,462.33,427.82 C461.68,427.82,461.33,427.17,461.03,426.72 C458.49,423.04,456.6,417.11,456.6,412.57 C456.6,409.14,457.74,405.45,461.83,405.45 C465.36,405.45,467.71,407.94,469.5,410.68 C469.95,407.79,471.89,405.45,474.98,405.45 C478.86,405.45,481.25,408.49,483.05,412.23 C484.24,414.67,486.14,421.44,486.14,424.53 Z " /><path
           id="path4360"
           fill="black"
           stroke-width="0"
           d="M511.56,424.83 L511.56,424.96 L511.55,425.1 L511.53,425.23 L511.51,425.36 L511.48,425.48 L511.44,425.61 L511.4,425.73 L511.35,425.85 L511.3,425.97 L511.24,426.08 L511.18,426.19 L511.11,426.3 L511.03,426.4 L510.96,426.5 L510.87,426.6 L510.78,426.69 L510.69,426.78 L510.6,426.86 L510.5,426.94 L510.39,427.01 L510.29,427.08 L510.18,427.15 L510.06,427.21 L509.95,427.26 L509.83,427.31 L509.7,427.35 L509.58,427.39 L509.45,427.41 L509.32,427.44 L509.19,427.46 L509.06,427.47 L508.93,427.47 C507.48,427.47,506.29,426.27,506.29,424.83 C506.29,423.38,507.48,422.19,508.93,422.19 C510.37,422.19,511.56,423.38,511.56,424.83 Z " /><path
           id="path4362"
           fill="black"
           stroke-width="0"
           d="M511.56,408.64 L511.56,408.78 L511.55,408.91 L511.53,409.04 L511.51,409.17 L511.48,409.3 L511.44,409.42 L511.4,409.54 L511.35,409.66 L511.3,409.78 L511.24,409.89 L511.18,410 L511.11,410.11 L511.03,410.21 L510.96,410.31 L510.87,410.41 L510.78,410.5 L510.69,410.59 L510.6,410.67 L510.5,410.75 L510.39,410.83 L510.29,410.9 L510.18,410.96 L510.06,411.02 L509.95,411.07 L509.83,411.12 L509.7,411.16 L509.58,411.2 L509.45,411.23 L509.32,411.25 L509.19,411.27 L509.06,411.28 L508.93,411.28 C507.48,411.28,506.29,410.09,506.29,408.64 C506.29,407.2,507.48,406,508.93,406 C510.37,406,511.56,407.2,511.56,408.64 Z " /><path
           id="path4364"
           fill="black"
           stroke-width="0"
           d="M560.75,448.64 L560.68,448.58 L560.61,448.51 L560.53,448.44 L560.45,448.37 L560.36,448.29 L560.27,448.21 L560.18,448.12 L560.09,448.03 L559.99,447.94 L559.9,447.85 L559.7,447.66 L559.51,447.47 L559.32,447.26 L559.23,447.16 L559.14,447.06 L559.05,446.96 L558.97,446.85 L558.89,446.75 L558.81,446.65 L558.74,446.55 L558.68,446.45 L558.62,446.35 L558.57,446.25 L558.52,446.15 L558.48,446.06 L558.45,445.96 L558.43,445.87 L558.41,445.78 L558.41,445.7 C558.41,445.2,558.91,444.7,559.41,444.7 C559.85,444.7,560.1,445.05,560.35,445.35 C560.95,446.1,562.09,447.49,564.28,448.59 C564.64,448.79,565.13,449.04,565.13,449.64 C565.13,450.13,564.78,450.38,564.44,450.63 C563.34,451.38,562.79,452.27,562.4,453.47 C562.29,453.92,562.09,454.57,561.4,454.57 C560.7,454.57,560.4,453.92,560.4,453.52 C560.4,453.27,560.8,451.68,561.6,450.63 H544.81 C543.96,450.63,543.07,450.63,543.07,449.64 C543.07,448.64,543.96,448.64,544.81,448.64 Z " /><path
           id="path4366"
           fill="black"
           stroke-width="0"
           d="M561.28,434.34 L561.51,434.7 L561.73,435.03 L561.96,435.34 L562.18,435.63 L562.4,435.91 L562.62,436.16 L562.83,436.4 L563.05,436.62 L563.26,436.82 L563.47,437 L563.68,437.18 L563.89,437.33 L564.09,437.48 L564.29,437.61 L564.5,437.72 L564.69,437.83 L564.89,437.93 L565.09,438.01 L565.28,438.09 L565.48,438.15 L565.67,438.21 L565.86,438.26 L566.04,438.3 L566.23,438.34 L566.41,438.37 L566.6,438.39 L566.96,438.43 L567.31,438.46 L567.66,438.48 C568.26,438.53,568.3,439.38,568.3,439.43 C568.3,439.82,568.06,440.02,567.66,440.02 H558.64 C558.34,440.02,557.7,440.02,557.7,439.07 C557.7,438.53,558.15,438.48,558.49,438.48 C559.84,438.38,560.78,437.88,560.78,436.84 C560.78,436.09,560.04,434.99,560.04,434.94 L544.75,410.63 L541.35,436.98 C541.35,437.83,542.5,438.48,544.79,438.48 C545.49,438.48,546.04,438.48,546.04,439.47 C546.04,439.92,545.64,440.02,545.34,440.02 C543.35,440.02,541.21,439.87,539.16,439.87 C538.27,439.87,537.32,439.92,536.43,439.92 C535.53,439.92,534.58,440.02,533.73,440.02 C533.39,440.02,532.79,440.02,532.79,439.07 C532.79,438.48,533.24,438.48,534.03,438.48 C536.82,438.48,536.88,438.03,537.02,436.79 L540.96,406.05 C541.11,405.05,541.31,404.9,541.96,404.9 C542.75,404.9,542.95,405.15,543.35,405.8 Z " /><path
           id="path4368"
           fill="black"
           stroke-width="0"
           d="M625.54,417.46 L625.29,417.26 L625.05,417.07 L624.81,416.87 L624.58,416.68 L624.36,416.48 L624.15,416.29 L623.94,416.1 L623.74,415.92 L623.55,415.73 L623.37,415.55 L623.2,415.37 L623.03,415.19 L622.87,415.02 L622.71,414.85 L622.57,414.69 L622.43,414.52 L622.29,414.37 L622.17,414.21 L622.05,414.06 L621.93,413.92 L621.83,413.78 L621.73,413.65 L621.63,413.52 L621.55,413.4 L621.46,413.29 L621.39,413.18 L621.32,413.08 L621.26,412.98 L621.2,412.89 L621.15,412.81 L621.1,412.74 L621.06,412.68 C618.82,409.24,618.42,406.1,618.42,406.05 C618.42,405.45,619.02,405.45,619.42,405.45 C620.27,405.45,620.31,405.55,620.51,406.45 C621.66,411.33,624.6,415.52,630.23,417.8 C630.82,418,630.97,418.11,630.97,418.45 C630.97,418.8,630.68,418.95,630.57,419 C628.38,419.85,622.35,422.34,620.47,430.71 C620.31,431.3,620.27,431.45,619.42,431.45 C619.02,431.45,618.42,431.45,618.42,430.86 C618.42,430.76,618.87,427.62,620.96,424.28 C621.96,422.79,623.4,421.04,625.54,419.45 H588.53 C587.64,419.45,586.74,419.45,586.74,418.45 C586.74,417.46,587.64,417.46,588.53,417.46 Z " /><path
           id="path4370"
           fill="black"
           stroke-width="0"
           d="M727.72,438.53 L726.93,439.27 C726.93,439.23,725.03,436.88,722.84,436.88 C721.7,436.88,720.45,437.63,719.6,438.13 C718.26,438.93,717.36,439.27,716.52,439.27 C714.62,439.27,713.68,438.18,711.13,435.39 L711.93,434.64 C711.93,434.69,713.82,437.04,716.02,437.04 C717.16,437.04,718.41,436.29,719.25,435.79 C720.6,434.99,721.5,434.64,722.34,434.64 C724.23,434.64,725.18,435.74,727.72,438.53 Z " /><path
           id="path4372"
           fill="black"
           stroke-width="0"
           d="M671.36,419.6 L671.35,420.08 L671.32,420.55 L671.27,421 L671.2,421.45 L671.12,421.88 L671.01,422.3 L670.89,422.71 L670.75,423.1 L670.59,423.48 L670.42,423.85 L670.23,424.2 L670.02,424.54 L669.8,424.86 L669.57,425.17 L669.32,425.47 L669.06,425.75 L668.78,426.02 L668.5,426.27 L668.2,426.5 L667.88,426.72 L667.56,426.92 L667.23,427.11 L666.88,427.28 L666.53,427.43 L666.16,427.57 L665.79,427.68 L665.41,427.78 L665.02,427.87 L664.62,427.93 L664.22,427.98 L663.81,428.01 L663.39,428.02 L663.34,426.92 C666.23,426.92,667.73,424.53,667.73,421.54 C667.73,419.6,666.73,414.37,664.84,411.13 C663.09,408.24,660.35,406.55,658.06,406.55 H658.06 C655.92,406.55,653.73,408.09,653.73,411.98 C653.73,414.42,655.02,419.8,656.62,422.34 C659.11,426.18,661.95,426.92,663.34,426.92 L663.39,428.02 C656.72,428.02,650.04,420.95,650.04,413.87 C650.04,408.94,653.38,405.45,658.01,405.45 C664.64,405.45,671.36,412.33,671.36,419.6 Z " /><path
           id="path4374"
           fill="black"
           stroke-width="0"
           d="M676.38,408.94 L676.37,408.87 L676.35,408.79 L676.34,408.72 L676.32,408.64 L676.29,408.48 L676.25,408.32 L676.21,408.16 L676.18,408 L676.14,407.84 L676.1,407.68 L676.09,407.6 L676.07,407.53 L676.05,407.46 L676.04,407.39 L676.02,407.32 L676.01,407.25 L676,407.19 L675.98,407.13 L675.97,407.08 L675.96,407.02 L675.95,406.97 L675.95,406.93 L675.94,406.89 L675.94,406.85 L675.93,406.82 L675.93,406.8 C675.93,405.9,676.63,405.45,677.38,405.45 C677.98,405.45,678.88,405.85,679.22,406.85 C679.27,406.95,679.87,409.29,680.17,410.53 L681.27,415.02 C681.56,416.11,681.86,417.21,682.11,418.36 C682.31,419.2,682.71,420.64,682.76,420.84 C683.51,422.39,686.15,426.92,690.88,426.92 C693.12,426.92,693.57,425.08,693.57,423.43 C693.57,422.19,693.22,420.79,692.82,419.3 L691.43,413.52 L690.43,409.73 C690.23,408.74,689.78,407.05,689.78,406.8 C689.78,405.9,690.48,405.45,691.23,405.45 C692.77,405.45,693.07,406.7,693.47,408.29 C694.17,411.08,696.01,418.36,696.46,420.3 C696.61,420.95,699.25,426.92,704.68,426.92 C706.82,426.92,707.37,425.23,707.37,423.43 C707.37,420.59,705.27,414.92,704.28,412.28 C703.83,411.08,703.63,410.53,703.63,409.54 C703.63,407.2,705.38,405.45,707.72,405.45 C712.4,405.45,714.24,412.73,714.24,413.12 C714.24,413.62,713.79,413.62,713.65,413.62 C713.15,413.62,713.15,413.47,712.9,412.73 C712.15,410.09,710.55,406.55,707.82,406.55 C706.97,406.55,706.62,407.05,706.62,408.19 C706.62,409.44,707.07,410.63,707.52,411.73 C708.47,414.32,710.55,419.85,710.55,422.69 C710.55,425.93,708.56,428.02,704.83,428.02 C701.09,428.02,698.55,425.82,696.71,423.18 C696.66,423.83,696.51,425.53,695.11,426.72 C693.87,427.77,692.27,428.02,691.03,428.02 C686.55,428.02,684.1,424.83,683.26,423.68 C683.01,426.52,680.92,428.02,678.68,428.02 C676.38,428.02,675.44,426.07,674.99,425.18 C674.09,423.43,673.45,420.5,673.45,420.35 C673.45,419.85,673.94,419.85,674.04,419.85 C674.54,419.85,674.59,419.9,674.89,420.99 C675.73,424.53,676.73,426.92,678.53,426.92 C679.32,426.92,680.07,426.52,680.07,424.63 C680.07,423.59,679.92,423.04,679.27,420.45 Z " /><path
           id="path4376"
           fill="black"
           stroke-width="0"
           d="M724.32,417.51 L724.46,417.51 L724.61,417.51 L724.78,417.51 L724.96,417.51 L725.14,417.52 L725.34,417.52 L725.55,417.53 L725.76,417.54 L725.99,417.55 L726.22,417.56 L726.46,417.58 L726.7,417.59 L726.95,417.61 L727.21,417.64 L727.73,417.69 L728.27,417.75 L728.81,417.83 L729.36,417.92 L729.9,418.03 L730.43,418.16 L730.7,418.23 L730.95,418.3 L731.21,418.38 L731.46,418.47 L731.7,418.56 L731.94,418.65 C735.42,420.15,735.67,423.09,735.67,423.79 C735.67,425.98,733.78,428.02,730.34,428.02 V426.92 C732.68,426.92,734.03,425.48,734.03,423.79 C734.03,418.6,726.06,418.6,724.02,418.6 H721.97 C723.92,426.18,729.05,426.92,730.34,426.92 V428.02 C724.81,428.02,717.29,423.18,717.29,414.47 C717.29,409.39,720.23,405.45,725.11,405.45 C732.23,405.45,736.42,410.73,736.42,411.33 C736.42,411.63,736.12,411.98,735.82,411.98 C735.57,411.98,735.47,411.88,735.18,411.48 C731.24,406.55,725.81,406.55,725.21,406.55 C721.33,406.55,720.88,410.73,720.88,412.33 C720.88,412.93,720.93,414.47,721.68,417.51 Z " /><path
           id="path4378"
           fill="black"
           stroke-width="0"
           d="M761.46,424.78 L761.47,424.84 L761.48,424.89 L761.49,424.94 L761.51,425 L761.53,425.1 L761.54,425.16 L761.56,425.21 L761.57,425.26 L761.58,425.32 L761.59,425.37 L761.6,425.43 L761.6,425.49 L761.61,425.55 L761.61,425.58 L761.61,425.61 L761.61,425.64 L761.61,425.68 C761.61,426.52,761.02,427.02,760.17,427.02 C759.67,427.02,758.32,426.67,758.12,424.88 C757.23,426.72,755.48,428.02,753.49,428.02 L753.54,426.92 C756.83,426.92,757.53,422.89,757.53,422.64 C757.53,422.39,757.43,422.09,757.38,421.89 L754.98,412.38 C754.69,411.08,753.54,409.84,752.45,408.89 C751.4,407.99,749.85,407.1,748.41,407.1 C745.92,407.1,745.17,409.69,745.17,411.68 C745.17,414.07,746.62,419.95,747.96,422.49 C749.31,424.93,751.45,426.92,753.54,426.92 L753.49,428.02 C747.81,428.02,741.64,421.04,741.64,413.87 C741.64,408.94,744.68,406,748.26,406 C751.2,406,753.54,408.34,754.04,408.89 L754.09,408.84 C753.04,404.41,752.45,402.36,752.45,402.27 C752.25,401.82,750.55,396.88,745.27,396.88 C744.33,396.88,742.68,396.93,741.29,397.38 C742.78,397.83,743.33,399.12,743.33,399.97 C743.33,400.77,742.78,401.71,741.44,401.71 C740.34,401.71,738.75,400.82,738.75,398.83 C738.75,396.79,740.59,395.79,745.37,395.79 C751.6,395.79,755.18,399.67,755.93,402.66 Z " /><path
           id="path4380"
           fill="black"
           stroke-width="0"
           d="M782.58,424.83 L782.5,425 L782.41,425.17 L782.31,425.33 L782.22,425.49 L782.12,425.65 L782.02,425.81 L781.91,425.96 L781.8,426.1 L781.69,426.25 L781.57,426.38 L781.45,426.52 L781.33,426.65 L781.2,426.77 L781.07,426.89 L780.93,427 L780.79,427.11 L780.65,427.22 L780.5,427.31 L780.35,427.41 L780.2,427.49 L780.04,427.57 L779.87,427.65 L779.7,427.72 L779.53,427.78 L779.36,427.83 L779.17,427.88 L778.99,427.92 L778.8,427.95 L778.61,427.98 L778.41,428 L778.2,428.01 L778,428.02 L778.05,426.92 C781.28,426.92,781.98,422.84,781.98,422.54 C781.98,422.24,781.88,421.94,781.83,421.69 L779.34,411.93 C779.09,411.03,779.09,410.93,778.35,410.09 C776.16,407.34,774.11,406.55,772.72,406.55 C770.23,406.55,769.53,409.29,769.53,411.23 C769.53,413.72,771.12,419.85,772.27,422.14 C773.81,425.08,776.05,426.92,778.05,426.92 L778,428.02 C772.17,428.02,765.99,420.7,765.99,413.42 C765.99,408.74,768.73,405.45,772.62,405.45 C773.61,405.45,776.1,405.65,779.09,409.19 C779.49,407.1,781.23,405.45,783.62,405.45 C785.37,405.45,786.52,406.6,787.31,408.19 C788.16,409.98,788.81,413.02,788.81,413.12 C788.81,413.62,788.36,413.62,788.21,413.62 C787.71,413.62,787.66,413.42,787.51,412.73 C786.66,409.49,785.77,406.55,783.73,406.55 C782.38,406.55,782.23,407.84,782.23,408.84 C782.23,409.93,782.33,410.33,782.88,412.53 C783.43,414.62,783.53,415.12,783.98,417.01 L785.77,423.98 C786.12,425.38,786.12,425.48,786.12,425.68 C786.12,426.52,785.52,427.02,784.67,427.02 C783.48,427.02,782.73,425.93,782.58,424.83 Z " /><path
           id="path4382"
           fill="black"
           stroke-width="0"
           d="M806.49,394.04 L806.49,394.07 L806.49,394.1 L806.48,394.11 L806.48,394.13 L806.48,394.14 L806.47,394.16 L806.47,394.18 L806.46,394.19 L806.45,394.21 L806.44,394.23 L806.43,394.26 L806.42,394.28 L806.4,394.3 L806.38,394.33 L806.36,394.36 L806.34,394.39 L806.31,394.42 L806.28,394.46 L806.27,394.48 L806.25,394.5 L806.23,394.52 L806.21,394.54 L806.19,394.56 L806.17,394.59 L806.15,394.61 L806.13,394.63 L806.11,394.66 L806.08,394.68 L806.06,394.71 L806.03,394.74 L806.01,394.77 L805.98,394.8 L805.95,394.83 L805.92,394.86 L805.89,394.89 L805.86,394.92 L805.82,394.96 L805.79,394.99 L805.75,395.03 L805.72,395.06 L805.68,395.1 L805.64,395.14 C799.41,401.42,797.82,410.83,797.82,418.45 C797.82,427.12,799.72,435.79,805.84,442.02 C806.49,442.61,806.49,442.71,806.49,442.86 C806.49,443.21,806.29,443.36,805.99,443.36 C805.49,443.36,801.01,439.97,798.07,433.64 C795.53,428.17,794.93,422.64,794.93,418.45 C794.93,414.57,795.48,408.54,798.22,402.91 C801.21,396.79,805.49,393.55,805.99,393.55 C806.29,393.55,806.49,393.7,806.49,394.04 Z " /><path
           id="path4384"
           fill="black"
           stroke-width="0"
           d="M839.75,448.64 L839.68,448.58 L839.61,448.51 L839.53,448.44 L839.45,448.37 L839.36,448.29 L839.27,448.21 L839.18,448.12 L839.09,448.03 L838.99,447.94 L838.9,447.85 L838.7,447.66 L838.51,447.47 L838.32,447.26 L838.23,447.16 L838.14,447.06 L838.05,446.96 L837.97,446.85 L837.89,446.75 L837.81,446.65 L837.74,446.55 L837.68,446.45 L837.62,446.35 L837.57,446.25 L837.52,446.15 L837.48,446.06 L837.45,445.96 L837.43,445.87 L837.41,445.78 L837.41,445.7 C837.41,445.2,837.91,444.7,838.41,444.7 C838.85,444.7,839.1,445.05,839.35,445.35 C839.95,446.1,841.09,447.49,843.28,448.59 C843.64,448.79,844.13,449.04,844.13,449.64 C844.13,450.13,843.78,450.38,843.44,450.63 C842.34,451.38,841.79,452.27,841.4,453.47 C841.29,453.92,841.09,454.57,840.4,454.57 C839.7,454.57,839.4,453.92,839.4,453.52 C839.4,453.27,839.8,451.68,840.6,450.63 H823.81 C822.96,450.63,822.07,450.63,822.07,449.64 C822.07,448.64,822.96,448.64,823.81,448.64 Z " /><path
           id="path4386"
           fill="black"
           stroke-width="0"
           d="M841.28,434.34 L841.51,434.7 L841.73,435.03 L841.96,435.34 L842.18,435.63 L842.4,435.91 L842.62,436.16 L842.83,436.4 L843.05,436.62 L843.26,436.82 L843.47,437 L843.68,437.18 L843.89,437.33 L844.09,437.48 L844.29,437.61 L844.5,437.72 L844.69,437.83 L844.89,437.93 L845.09,438.01 L845.28,438.09 L845.48,438.15 L845.67,438.21 L845.86,438.26 L846.04,438.3 L846.23,438.34 L846.41,438.37 L846.6,438.39 L846.96,438.43 L847.31,438.46 L847.66,438.48 C848.26,438.53,848.3,439.38,848.3,439.43 C848.3,439.82,848.06,440.02,847.66,440.02 H838.64 C838.34,440.02,837.7,440.02,837.7,439.07 C837.7,438.53,838.15,438.48,838.49,438.48 C839.84,438.38,840.78,437.88,840.78,436.84 C840.78,436.09,840.04,434.99,840.04,434.94 L824.75,410.63 L821.35,436.98 C821.35,437.83,822.5,438.48,824.79,438.48 C825.49,438.48,826.04,438.48,826.04,439.47 C826.04,439.92,825.64,440.02,825.34,440.02 C823.35,440.02,821.21,439.87,819.16,439.87 C818.27,439.87,817.32,439.92,816.43,439.92 C815.53,439.92,814.58,440.02,813.73,440.02 C813.39,440.02,812.79,440.02,812.79,439.07 C812.79,438.48,813.24,438.48,814.03,438.48 C816.82,438.48,816.88,438.03,817.02,436.79 L820.96,406.05 C821.11,405.05,821.31,404.9,821.96,404.9 C822.75,404.9,822.95,405.15,823.35,405.8 Z " /><path
           id="path4388"
           fill="black"
           stroke-width="0"
           d="M864.4,418.45 L864.39,418.82 L864.39,419.21 L864.38,419.6 L864.37,420.01 L864.33,420.85 L864.27,421.73 L864.18,422.65 L864.08,423.59 L863.94,424.57 L863.78,425.57 L863.58,426.59 L863.35,427.63 L863.08,428.68 L862.78,429.74 L862.43,430.8 L862.04,431.87 L861.82,432.4 L861.6,432.94 L861.36,433.47 L861.11,434 C858.12,440.12,853.84,443.36,853.34,443.36 C853.04,443.36,852.84,443.16,852.84,442.86 C852.84,442.71,852.84,442.61,853.78,441.71 C858.67,436.79,861.51,428.86,861.51,418.45 C861.51,409.93,859.66,401.17,853.49,394.89 C852.84,394.29,852.84,394.2,852.84,394.04 C852.84,393.75,853.04,393.55,853.34,393.55 C853.84,393.55,858.32,396.93,861.26,403.26 C863.8,408.74,864.4,414.27,864.4,418.45 Z " /><path
           id="path4390"
           fill="black"
           stroke-width="0"
           d="M910.3,417.46 L910.46,417.46 L910.62,417.46 L910.77,417.46 L910.85,417.47 L910.93,417.47 L911,417.48 L911.08,417.49 L911.15,417.5 L911.22,417.51 L911.29,417.52 L911.36,417.54 L911.42,417.56 L911.49,417.58 L911.55,417.61 L911.61,417.63 L911.66,417.67 L911.71,417.7 L911.76,417.74 L911.81,417.78 L911.85,417.83 L911.89,417.88 L911.91,417.9 L911.92,417.93 L911.94,417.96 L911.95,417.99 L911.97,418.02 L911.98,418.06 L911.99,418.09 L912,418.12 L912.01,418.16 L912.02,418.2 L912.03,418.24 L912.03,418.28 L912.04,418.32 L912.04,418.36 L912.04,418.41 L912.04,418.45 C912.04,419.45,911.15,419.45,910.3,419.45 H889.18 C889.77,426.12,895.5,430.91,902.53,430.91 H910.3 C911.15,430.91,912.04,430.91,912.04,431.9 C912.04,432.9,911.15,432.9,910.3,432.9 H902.43 C893.91,432.9,887.13,426.42,887.13,418.45 C887.13,410.48,893.91,404.01,902.43,404.01 H910.3 C911.15,404.01,912.04,404.01,912.04,405 C912.04,406,911.15,406,910.3,406 H902.53 C895.5,406,889.77,410.78,889.18,417.46 Z " /><path
           id="path4392"
           fill="black"
           stroke-width="0"
           d="M943.35,421.64 V423.38 V435.69 C943.35,436.73,943.35,438.38,946.44,438.38 C950.67,438.38,952.77,436.64,952.77,430.76 C952.77,424.33,951.22,423.38,943.35,423.38 V421.64 H945.15 L952.61,410.09 C953.11,409.29,954.31,407.34,954.85,406.6 L956.15,407.74 L947.18,421.64 C947.53,421.69,947.73,421.74,948.13,421.74 C948.88,421.74,949.98,421.84,950.72,421.94 C951.47,420.75,956.85,411.88,960.98,407.74 H956.15 L954.85,406.6 C955.21,406,955.35,406,956.5,406 H963.38 C964.27,406,965.02,406,965.02,406.9 C965.02,407.3,964.72,407.64,964.27,407.74 C962.43,408.14,959.99,411.43,958.79,413.02 C958.44,413.52,955.95,416.81,952.61,422.19 C957.05,422.98,961.33,424.88,961.33,430.81 H959.59 C959.59,427.57,958.09,425.03,952.97,424.08 H952.97 C954.36,425.93,954.51,428.57,954.51,430.76 C954.51,433.15,954.21,435.79,952.61,437.83 C954.66,437.38,959.59,435.84,959.59,430.81 H961.33 C961.33,437.73,954.01,440.12,948.13,440.12 H932.49 C931.59,440.12,930.8,440.12,930.8,439.23 C930.8,438.38,931.74,438.38,932.14,438.38 C934.98,438.38,935.23,438.03,935.23,435.54 V410.58 L936.97,410.48 V435.64 C936.97,436.14,936.97,437.48,936.57,438.38 H942.25 C941.6,437.58,941.6,436.59,941.6,435.84 V410.48 C941.6,409.98,941.6,408.64,942,407.74 H936.57 C936.97,408.64,936.97,410.04,936.97,410.48 L935.23,410.58 C935.23,408.09,934.98,407.74,932.14,407.74 C931.74,407.74,930.8,407.74,930.8,406.9 C930.8,406,931.59,406,932.49,406 H946.14 C947.03,406,947.78,406,947.78,406.9 C947.78,407.74,946.94,407.74,946.39,407.74 C943.55,407.74,943.35,408.14,943.35,410.58 Z " /></g>    </g>
  </g>
  <g
     id="g3656"
     transform="translate(61.619305,81.822356)">
    <g
       word-spacing="normal"
       letter-spacing="normal"
       font-size-adjust="none"
       font-stretch="normal"
       font-weight="normal"
       font-variant="normal"
       font-style="normal"
       stroke-miterlimit="10.433"
       xml:space="preserve"
       transform="matrix(0.42857143,0,0,-0.42857143,-75,337.5)"
       id="g3658"
       style="font-style:normal;font-variant:normal;font-weight:normal;font-stretch:normal;letter-spacing:normal;word-spacing:normal;text-anchor:start;fill:none;stroke:#000000;stroke-linecap:butt;stroke-linejoin:miter;stroke-miterlimit:10.43299961;stroke-opacity:1;stroke-dasharray:none;stroke-dashoffset:0"><path
         id="path3660"
         d="m 475.18,433.84 0.13,-0.61 0.13,-0.65 0.14,-0.66 0.14,-0.68 0.15,-0.7 0.15,-0.72 0.32,-1.47 0.34,-1.52 0.36,-1.56 0.37,-1.57 0.4,-1.57 0.41,-1.57 0.42,-1.55 0.45,-1.51 0.46,-1.46 0.24,-0.71 0.24,-0.69 0.24,-0.68 0.25,-0.65 0.25,-0.63 0.26,-0.61 0.26,-0.58 0.26,-0.56 c 1.1,-2.14 1.65,-3.23 2.15,-3.23 0.19,0 0.3,0 1.19,0.89 3.79,3.64 6.38,6.53 9.86,10.51 l 10.91,12.7 c -0.7,-4.23 -2.49,-15.44 -2.49,-21.27 0,-1.34 0.05,-2.64 0.2,-3.98 0.05,-0.55 0.25,-2 2.34,-2 2.09,0 5.88,2.2 5.88,3.19 0,0.3 -0.3,0.35 -0.45,0.35 -0.64,0 -1.64,-0.45 -2.19,-0.79 -1.19,0.15 -1.29,0.94 -1.4,2.09 -0.14,1.59 -0.14,3.09 -0.14,3.29 0,5.52 2.19,20.62 3.63,26.79 0.05,0.35 0.1,0.45 0.1,0.85 0,0.2 -0.05,0.75 -0.39,0.75 -0.2,0 -0.25,-0.05 -1.2,-1.15 -4.68,-5.68 -19.23,-23.11 -24.16,-27.3 -1.25,2.65 -2.14,4.54 -3.89,11.51 -1.44,5.63 -2.29,9.76 -3.13,14.6 -0.16,0.7 -0.4,2.04 -0.4,2.14 -0.15,0.25 -0.4,0.25 -0.55,0.25 -0.9,0 -2.99,-1.1 -3.14,-2.14 -0.6,-4.19 -1.59,-10.77 -5.08,-20.28 -3.99,-10.61 -5.08,-10.61 -6.03,-10.61 -0.64,0 -2.49,0.4 -3.58,1.4 -0.25,0.24 -0.35,0.24 -0.45,0.24 -0.7,0 -1.8,-2.23 -1.8,-3.63 0,-0.45 0,-1.05 1.6,-1.89 1.24,-0.65 2.44,-0.7 2.69,-0.7 3.09,0 6.03,7.12 7.02,9.66 2.34,5.63 5.14,13.5 6.53,20.67 z"
         inkscape:connector-curvature="0"
         style="fill:#000000;stroke-width:0" /></g>  </g>
  <g
     transform="translate(10,10)"
     id="g4292">
    <rect
       style="fill:#e6e6e6;fill-opacity:1"
       id="rect3777"
       width="102.02541"
       height="30.809652"
       x="-166.97098"
       y="812.58954"
       transform="matrix(0.97299753,-0.23081551,0.23081551,0.97299753,0,-752.36218)"
       ry="5.8083768" />
    <g
       id="g3966"
       transform="matrix(0.74084622,-0.19197262,0.19197262,0.74084622,-57.827487,-8.3946571)">
      <g
         word-spacing="normal"
         letter-spacing="normal"
         font-size-adjust="none"
         font-stretch="normal"
         font-weight="normal"
         font-variant="normal"
         font-style="normal"
         stroke-miterlimit="10.433"
         xml:space="preserve"
         transform="matrix(0.42857143,0,0,-0.42857143,-75,337.5)"
         id="g3968"
         style="font-style:normal;font-variant:normal;font-weight:normal;font-stretch:normal;letter-spacing:normal;word-spacing:normal;text-anchor:start;fill:none;stroke:#000000;stroke-linecap:butt;stroke-linejoin:miter;stroke-miterlimit:10.43299961;stroke-opacity:1;stroke-dasharray:none;stroke-dashoffset:0"><path
           id="path3970"
           d="m 477.27,436.24 0.03,0.13 0.03,0.12 0.03,0.11 0.03,0.11 0.03,0.11 0.03,0.09 0.03,0.1 0.03,0.08 0.03,0.09 0.03,0.07 0.03,0.08 0.03,0.06 0.03,0.07 0.03,0.06 0.03,0.05 0.03,0.06 0.03,0.04 0.03,0.05 0.04,0.04 0.03,0.04 0.04,0.03 0.03,0.04 0.04,0.03 0.04,0.02 0.04,0.03 0.05,0.02 0.04,0.02 0.05,0.02 0.05,0.02 0.05,0.02 0.05,0.01 0.05,0.02 c 0.45,0.1 2.1,0.1 3.14,0.1 5.04,0 7.28,-0.2 7.28,-4.09 0,-0.74 -0.2,-2.68 -0.4,-3.98 -0.05,-0.2 -0.15,-0.8 -0.15,-0.95 0,-0.3 0.15,-0.64 0.6,-0.64 0.55,0 0.64,0.39 0.74,1.14 l 1.35,8.67 c 0.05,0.2 0.1,0.7 0.1,0.85 0,0.54 -0.5,0.54 -1.35,0.54 h -27.64 c -1.2,0 -1.25,-0.05 -1.6,-0.99 l -2.98,-8.77 c -0.05,-0.1 -0.3,-0.8 -0.3,-0.9 0,-0.29 0.25,-0.54 0.59,-0.54 0.5,0 0.55,0.25 0.85,1.04 2.69,7.72 3.98,8.62 11.36,8.62 h 1.94 c 1.4,0 1.4,-0.2 1.4,-0.6 0,-0.3 -0.16,-0.9 -0.2,-1.04 l -6.68,-26.61 c -0.45,-1.84 -0.6,-2.39 -5.93,-2.39 -1.79,0 -2.09,0 -2.09,-0.94 0,-0.6 0.55,-0.6 0.85,-0.6 1.34,0 2.74,0.1 4.08,0.1 h 8.37 c 1.44,0 2.94,-0.1 4.33,-0.1 0.5,0 1.1,0 1.1,1 0,0.54 -0.4,0.54 -1.69,0.54 -1.25,0 -1.89,0 -3.19,0.1 -1.45,0.15 -1.84,0.3 -1.84,1.1 0,0.05 0,0.3 0.19,1.05 z"
           inkscape:connector-curvature="0"
           style="fill:#000000;stroke-width:0" /><path
           id="path3972"
           d="m 511.18,433.84 0.13,-0.61 0.13,-0.65 0.14,-0.66 0.14,-0.68 0.15,-0.7 0.15,-0.72 0.32,-1.47 0.34,-1.52 0.36,-1.56 0.37,-1.57 0.4,-1.57 0.41,-1.57 0.42,-1.55 0.45,-1.51 0.46,-1.46 0.24,-0.71 0.24,-0.69 0.24,-0.68 0.25,-0.65 0.25,-0.63 0.26,-0.61 0.26,-0.58 0.26,-0.56 c 1.1,-2.14 1.65,-3.23 2.15,-3.23 0.2,0 0.3,0 1.19,0.89 3.79,3.64 6.38,6.53 9.86,10.51 l 10.91,12.7 c -0.69,-4.23 -2.49,-15.44 -2.49,-21.27 0,-1.34 0.05,-2.64 0.2,-3.98 0.05,-0.55 0.25,-2 2.35,-2 2.08,0 5.87,2.2 5.87,3.19 0,0.3 -0.3,0.35 -0.44,0.35 -0.65,0 -1.65,-0.45 -2.2,-0.79 -1.19,0.15 -1.29,0.94 -1.4,2.09 -0.14,1.59 -0.14,3.09 -0.14,3.29 0,5.52 2.19,20.62 3.63,26.79 0.05,0.35 0.11,0.45 0.11,0.85 0,0.2 -0.06,0.75 -0.4,0.75 -0.2,0 -0.25,-0.05 -1.2,-1.15 -4.68,-5.68 -19.23,-23.11 -24.16,-27.3 -1.24,2.65 -2.14,4.54 -3.89,11.51 -1.44,5.63 -2.28,9.76 -3.13,14.6 -0.15,0.7 -0.4,2.04 -0.4,2.14 -0.15,0.25 -0.4,0.25 -0.55,0.25 -0.9,0 -2.99,-1.1 -3.14,-2.14 -0.6,-4.19 -1.59,-10.77 -5.08,-20.28 -3.99,-10.61 -5.08,-10.61 -6.03,-10.61 -0.64,0 -2.49,0.4 -3.58,1.4 -0.25,0.24 -0.35,0.24 -0.45,0.24 -0.7,0 -1.8,-2.23 -1.8,-3.63 0,-0.45 0,-1.05 1.6,-1.89 1.24,-0.65 2.44,-0.7 2.69,-0.7 3.09,0 6.03,7.12 7.02,9.66 2.34,5.63 5.14,13.5 6.53,20.67 z"
           inkscape:connector-curvature="0"
           style="fill:#000000;stroke-width:0" /></g>    </g>
  </g>
  <g
     id="g3865">
    <rect
       style="fill:#ff0002;fill-opacity:0.19491523"
       id="rect3777-2"
       width="114.91702"
       height="34.760082"
       x="-387.83914"
       y="-5.9075141"
       transform="matrix(-0.97290145,-0.23122018,-0.23041147,0.97309329,0,0)"
       ry="6.5531301" />
    <g
       transform="matrix(0.76880504,0.18298678,-0.18298678,0.76880504,231.85587,-60.952649)"
       id="g4078">
      <g
         style="font-style:normal;font-variant:normal;font-weight:normal;font-stretch:normal;letter-spacing:normal;word-spacing:normal;text-anchor:start;fill:none;stroke:#000000;stroke-linecap:butt;stroke-linejoin:miter;stroke-miterlimit:10.43299961;stroke-opacity:1;stroke-dasharray:none;stroke-dashoffset:0"
         id="g4080"
         transform="matrix(0.42857143,0,0,-0.42857143,-75,337.5)"
         xml:space="preserve"
         stroke-miterlimit="10.433"
         font-style="normal"
         font-variant="normal"
         font-weight="normal"
         font-stretch="normal"
         font-size-adjust="none"
         letter-spacing="normal"
         word-spacing="normal"><path
           style="fill:#000000;stroke-width:0"
           inkscape:connector-curvature="0"
           d="m 477.27,436.24 0.03,0.13 0.03,0.12 0.03,0.11 0.03,0.11 0.03,0.11 0.03,0.09 0.03,0.1 0.03,0.08 0.03,0.09 0.03,0.07 0.03,0.08 0.03,0.06 0.03,0.07 0.03,0.06 0.03,0.05 0.03,0.06 0.03,0.04 0.03,0.05 0.04,0.04 0.03,0.04 0.04,0.03 0.03,0.04 0.04,0.03 0.04,0.02 0.04,0.03 0.05,0.02 0.04,0.02 0.05,0.02 0.05,0.02 0.05,0.02 0.05,0.01 0.05,0.02 c 0.45,0.1 2.1,0.1 3.14,0.1 5.04,0 7.28,-0.2 7.28,-4.09 0,-0.74 -0.2,-2.68 -0.4,-3.98 -0.05,-0.2 -0.15,-0.8 -0.15,-0.95 0,-0.3 0.15,-0.64 0.6,-0.64 0.55,0 0.64,0.39 0.74,1.14 l 1.35,8.67 c 0.05,0.2 0.1,0.7 0.1,0.85 0,0.54 -0.5,0.54 -1.35,0.54 h -27.64 c -1.2,0 -1.25,-0.05 -1.6,-0.99 l -2.98,-8.77 c -0.05,-0.1 -0.3,-0.8 -0.3,-0.9 0,-0.29 0.25,-0.54 0.59,-0.54 0.5,0 0.55,0.25 0.85,1.04 2.69,7.72 3.98,8.62 11.36,8.62 h 1.94 c 1.4,0 1.4,-0.2 1.4,-0.6 0,-0.3 -0.16,-0.9 -0.2,-1.04 l -6.68,-26.61 c -0.45,-1.84 -0.6,-2.39 -5.93,-2.39 -1.79,0 -2.09,0 -2.09,-0.94 0,-0.6 0.55,-0.6 0.85,-0.6 1.34,0 2.74,0.1 4.08,0.1 h 8.37 c 1.44,0 2.94,-0.1 4.33,-0.1 0.5,0 1.1,0 1.1,1 0,0.54 -0.4,0.54 -1.69,0.54 -1.25,0 -1.89,0 -3.19,0.1 -1.45,0.15 -1.84,0.3 -1.84,1.1 0,0.05 0,0.3 0.19,1.05 z"
           id="path4082" /><path
           style="fill:#000000;stroke-width:0"
           inkscape:connector-curvature="0"
           d="m 503.26,435.68 0.27,0.12 0.25,0.11 0.25,0.11 0.23,0.1 0.23,0.1 0.22,0.09 0.22,0.09 0.2,0.09 0.2,0.09 0.19,0.08 0.18,0.07 0.18,0.08 0.17,0.07 0.16,0.07 0.16,0.06 0.15,0.07 0.14,0.06 0.14,0.06 0.14,0.05 0.13,0.06 0.12,0.05 0.12,0.05 0.11,0.05 0.11,0.05 0.11,0.04 0.1,0.05 0.2,0.08 0.18,0.08 0.17,0.08 c 0.66,0.28 0.97,0.42 0.97,1.09 0,0.59 -0.45,1.11 -1.08,1.11 -0.25,0 -0.31,0 -0.73,-0.31 l -4.75,-3.18 0.53,5.16 c 0.07,0.63 0,1.5 -1.05,1.5 -0.42,0 -1.08,-0.28 -1.08,-1.04 0,-0.31 0.14,-1.36 0.17,-1.71 0.07,-0.59 0.32,-3.1 0.39,-3.91 l -4.71,3.18 c -0.35,0.21 -0.45,0.31 -0.77,0.31 -0.62,0 -1.08,-0.52 -1.08,-1.11 0,-0.7 0.42,-0.88 0.74,-1.02 l 5.26,-2.19 c -2.86,-1.26 -4.15,-1.75 -5.02,-2.17 -0.66,-0.27 -0.98,-0.41 -0.98,-1.08 0,-0.59 0.46,-1.11 1.08,-1.11 0.25,0 0.32,0 0.74,0.31 l 4.74,3.17 -0.56,-5.61 c 0,-0.77 0.66,-1.04 1.08,-1.04 0.42,0 1.08,0.27 1.08,1.04 0,0.32 -0.14,1.36 -0.17,1.71 -0.07,0.59 -0.32,3.1 -0.39,3.9 l 4.19,-2.79 c 0.91,-0.69 0.98,-0.69 1.29,-0.69 0.63,0 1.08,0.52 1.08,1.11 0,0.7 -0.42,0.88 -0.73,1.01 z"
           id="path4084" /><path
           style="fill:#000000;stroke-width:0"
           inkscape:connector-curvature="0"
           d="m 533.18,433.84 0.13,-0.61 0.13,-0.65 0.14,-0.66 0.14,-0.68 0.15,-0.7 0.15,-0.72 0.32,-1.47 0.34,-1.52 0.36,-1.56 0.37,-1.57 0.4,-1.57 0.41,-1.57 0.42,-1.55 0.45,-1.51 0.46,-1.46 0.24,-0.71 0.24,-0.69 0.24,-0.68 0.25,-0.65 0.25,-0.63 0.26,-0.61 0.26,-0.58 0.26,-0.56 c 1.1,-2.14 1.65,-3.23 2.15,-3.23 0.2,0 0.3,0 1.19,0.89 3.79,3.64 6.38,6.53 9.86,10.51 l 10.91,12.7 c -0.69,-4.23 -2.49,-15.44 -2.49,-21.27 0,-1.34 0.05,-2.64 0.2,-3.98 0.05,-0.55 0.25,-2 2.35,-2 2.08,0 5.87,2.2 5.87,3.19 0,0.3 -0.3,0.35 -0.44,0.35 -0.65,0 -1.65,-0.45 -2.2,-0.79 -1.19,0.15 -1.29,0.94 -1.4,2.09 -0.14,1.59 -0.14,3.09 -0.14,3.29 0,5.52 2.19,20.62 3.63,26.79 0.05,0.35 0.11,0.45 0.11,0.85 0,0.2 -0.06,0.75 -0.4,0.75 -0.2,0 -0.25,-0.05 -1.2,-1.15 -4.68,-5.68 -19.23,-23.11 -24.16,-27.3 -1.24,2.65 -2.14,4.54 -3.89,11.51 -1.44,5.63 -2.28,9.76 -3.13,14.6 -0.15,0.7 -0.4,2.04 -0.4,2.14 -0.15,0.25 -0.4,0.25 -0.55,0.25 -0.9,0 -2.99,-1.1 -3.14,-2.14 -0.6,-4.19 -1.59,-10.77 -5.08,-20.28 -3.98,-10.61 -5.08,-10.61 -6.03,-10.61 -0.64,0 -2.49,0.4 -3.58,1.4 -0.25,0.24 -0.35,0.24 -0.45,0.24 -0.7,0 -1.8,-2.23 -1.8,-3.63 0,-0.45 0,-1.05 1.6,-1.89 1.24,-0.65 2.44,-0.7 2.69,-0.7 3.09,0 6.03,7.12 7.02,9.66 2.34,5.63 5.13,13.5 6.53,20.67 z"
           id="path4086" /></g>    </g>
  </g>
  <g
     style="fill:#000080"
     transform="matrix(0.72370108,0,0,0.72370108,211.20323,56.076326)"
     id="g4202">
    <g
       style="font-style:normal;font-variant:normal;font-weight:normal;font-stretch:normal;letter-spacing:normal;word-spacing:normal;text-anchor:start;fill:#000080;stroke:#000000;stroke-linecap:butt;stroke-linejoin:miter;stroke-miterlimit:10.43299961;stroke-opacity:1;stroke-dasharray:none;stroke-dashoffset:0"
       id="g4204"
       transform="matrix(0.42857143,0,0,-0.42857143,-75,337.5)"
       xml:space="preserve"
       stroke-miterlimit="10.433"
       font-style="normal"
       font-variant="normal"
       font-weight="normal"
       font-stretch="normal"
       font-size-adjust="none"
       letter-spacing="normal"
       word-spacing="normal"><path
         style="fill:#000080;stroke-width:0"
         inkscape:connector-curvature="0"
         d="m 477.27,436.24 0.03,0.13 0.03,0.12 0.03,0.11 0.03,0.11 0.03,0.11 0.03,0.09 0.03,0.1 0.03,0.08 0.03,0.09 0.03,0.07 0.03,0.08 0.03,0.06 0.03,0.07 0.03,0.06 0.03,0.05 0.03,0.06 0.03,0.04 0.03,0.05 0.04,0.04 0.03,0.04 0.04,0.03 0.03,0.04 0.04,0.03 0.04,0.02 0.04,0.03 0.05,0.02 0.04,0.02 0.05,0.02 0.05,0.02 0.05,0.02 0.05,0.01 0.05,0.02 c 0.45,0.1 2.1,0.1 3.14,0.1 5.04,0 7.28,-0.2 7.28,-4.09 0,-0.74 -0.2,-2.68 -0.4,-3.98 -0.05,-0.2 -0.15,-0.8 -0.15,-0.95 0,-0.3 0.15,-0.64 0.6,-0.64 0.55,0 0.64,0.39 0.74,1.14 l 1.35,8.67 c 0.05,0.2 0.1,0.7 0.1,0.85 0,0.54 -0.5,0.54 -1.35,0.54 h -27.64 c -1.2,0 -1.25,-0.05 -1.6,-0.99 l -2.98,-8.77 c -0.05,-0.1 -0.3,-0.8 -0.3,-0.9 0,-0.29 0.25,-0.54 0.59,-0.54 0.5,0 0.55,0.25 0.85,1.04 2.69,7.72 3.98,8.62 11.36,8.62 h 1.94 c 1.4,0 1.4,-0.2 1.4,-0.6 0,-0.3 -0.16,-0.9 -0.2,-1.04 l -6.68,-26.61 c -0.45,-1.84 -0.6,-2.39 -5.93,-2.39 -1.79,0 -2.09,0 -2.09,-0.94 0,-0.6 0.55,-0.6 0.85,-0.6 1.34,0 2.74,0.1 4.08,0.1 h 8.37 c 1.44,0 2.94,-0.1 4.33,-0.1 0.5,0 1.1,0 1.1,1 0,0.54 -0.4,0.54 -1.69,0.54 -1.25,0 -1.89,0 -3.19,0.1 -1.45,0.15 -1.84,0.3 -1.84,1.1 0,0.05 0,0.3 0.19,1.05 z"
         id="path4206" /><path
         style="fill:#000080;stroke-width:0"
         inkscape:connector-curvature="0"
         d="m 503.26,435.68 0.27,0.12 0.25,0.11 0.25,0.11 0.23,0.1 0.23,0.1 0.22,0.09 0.22,0.09 0.2,0.09 0.2,0.09 0.19,0.08 0.18,0.07 0.18,0.08 0.17,0.07 0.16,0.07 0.16,0.06 0.15,0.07 0.14,0.06 0.14,0.06 0.14,0.05 0.13,0.06 0.12,0.05 0.12,0.05 0.11,0.05 0.11,0.05 0.11,0.04 0.1,0.05 0.2,0.08 0.18,0.08 0.17,0.08 c 0.66,0.28 0.97,0.42 0.97,1.09 0,0.59 -0.45,1.11 -1.08,1.11 -0.25,0 -0.31,0 -0.73,-0.31 l -4.75,-3.18 0.53,5.16 c 0.07,0.63 0,1.5 -1.05,1.5 -0.42,0 -1.08,-0.28 -1.08,-1.04 0,-0.31 0.14,-1.36 0.17,-1.71 0.07,-0.59 0.32,-3.1 0.39,-3.91 l -4.71,3.18 c -0.35,0.21 -0.45,0.31 -0.77,0.31 -0.62,0 -1.08,-0.52 -1.08,-1.11 0,-0.7 0.42,-0.88 0.74,-1.02 l 5.26,-2.19 c -2.86,-1.26 -4.15,-1.75 -5.02,-2.17 -0.66,-0.27 -0.98,-0.41 -0.98,-1.08 0,-0.59 0.46,-1.11 1.08,-1.11 0.25,0 0.32,0 0.74,0.31 l 4.74,3.17 -0.56,-5.61 c 0,-0.77 0.66,-1.04 1.08,-1.04 0.42,0 1.08,0.27 1.08,1.04 0,0.32 -0.14,1.36 -0.17,1.71 -0.07,0.59 -0.32,3.1 -0.39,3.9 l 4.19,-2.79 c 0.91,-0.69 0.98,-0.69 1.29,-0.69 0.63,0 1.08,0.52 1.08,1.11 0,0.7 -0.42,0.88 -0.73,1.01 z"
         id="path4208" /><path
         style="fill:#000080;stroke-width:0"
         inkscape:connector-curvature="0"
         d="m 533.18,433.84 0.13,-0.61 0.13,-0.65 0.14,-0.66 0.14,-0.68 0.15,-0.7 0.15,-0.72 0.32,-1.47 0.34,-1.52 0.36,-1.56 0.37,-1.57 0.4,-1.57 0.41,-1.57 0.42,-1.55 0.45,-1.51 0.46,-1.46 0.24,-0.71 0.24,-0.69 0.24,-0.68 0.25,-0.65 0.25,-0.63 0.26,-0.61 0.26,-0.58 0.26,-0.56 c 1.1,-2.14 1.65,-3.23 2.15,-3.23 0.2,0 0.3,0 1.19,0.89 3.79,3.64 6.38,6.53 9.86,10.51 l 10.91,12.7 c -0.69,-4.23 -2.49,-15.44 -2.49,-21.27 0,-1.34 0.05,-2.64 0.2,-3.98 0.05,-0.55 0.25,-2 2.35,-2 2.08,0 5.87,2.2 5.87,3.19 0,0.3 -0.3,0.35 -0.44,0.35 -0.65,0 -1.65,-0.45 -2.2,-0.79 -1.19,0.15 -1.29,0.94 -1.4,2.09 -0.14,1.59 -0.14,3.09 -0.14,3.29 0,5.52 2.19,20.62 3.63,26.79 0.05,0.35 0.11,0.45 0.11,0.85 0,0.2 -0.06,0.75 -0.4,0.75 -0.2,0 -0.25,-0.05 -1.2,-1.15 -4.68,-5.68 -19.23,-23.11 -24.16,-27.3 -1.24,2.65 -2.14,4.54 -3.89,11.51 -1.44,5.63 -2.28,9.76 -3.13,14.6 -0.15,0.7 -0.4,2.04 -0.4,2.14 -0.15,0.25 -0.4,0.25 -0.55,0.25 -0.9,0 -2.99,-1.1 -3.14,-2.14 -0.6,-4.19 -1.59,-10.77 -5.08,-20.28 -3.98,-10.61 -5.08,-10.61 -6.03,-10.61 -0.64,0 -2.49,0.4 -3.58,1.4 -0.25,0.24 -0.35,0.24 -0.45,0.24 -0.7,0 -1.8,-2.23 -1.8,-3.63 0,-0.45 0,-1.05 1.6,-1.89 1.24,-0.65 2.44,-0.7 2.69,-0.7 3.09,0 6.03,7.12 7.02,9.66 2.34,5.63 5.13,13.5 6.53,20.67 z"
         id="path4210" /><path
         style="fill:#000080;stroke-width:0"
         inkscape:connector-curvature="0"
         d="m 597.56,424.83 0,0.13 -0.01,0.14 -0.02,0.13 -0.02,0.13 -0.03,0.12 -0.04,0.13 -0.04,0.12 -0.05,0.12 -0.05,0.12 -0.06,0.11 -0.06,0.11 -0.07,0.11 -0.08,0.1 -0.07,0.1 -0.09,0.1 -0.09,0.09 -0.09,0.09 -0.09,0.08 -0.1,0.08 -0.11,0.07 -0.1,0.07 -0.11,0.07 -0.12,0.06 -0.11,0.05 -0.12,0.05 -0.13,0.04 -0.12,0.04 -0.13,0.02 -0.13,0.03 -0.13,0.02 -0.13,0.01 -0.13,0 c -1.45,0 -2.65,-1.2 -2.65,-2.64 0,-1.45 1.2,-2.64 2.65,-2.64 1.44,0 2.63,1.19 2.63,2.64 z"
         id="path4212" /><path
         style="fill:#000080;stroke-width:0"
         inkscape:connector-curvature="0"
         d="m 597.56,408.64 0,0.14 -0.01,0.13 -0.02,0.13 -0.02,0.13 -0.03,0.13 -0.04,0.12 -0.04,0.12 -0.05,0.12 -0.05,0.12 -0.06,0.11 -0.06,0.11 -0.07,0.11 -0.08,0.1 -0.07,0.1 -0.09,0.1 -0.09,0.09 -0.09,0.09 -0.09,0.08 -0.1,0.08 -0.11,0.08 -0.1,0.07 -0.11,0.06 -0.12,0.06 -0.11,0.05 -0.12,0.05 -0.13,0.04 -0.12,0.04 -0.13,0.03 -0.13,0.02 -0.13,0.02 -0.13,0.01 -0.13,0 c -1.45,0 -2.65,-1.19 -2.65,-2.64 0,-1.44 1.2,-2.64 2.65,-2.64 1.44,0 2.63,1.2 2.63,2.64 z"
         id="path4214" /><path
         style="fill:#000080;stroke-width:0"
         inkscape:connector-curvature="0"
         d="m 637.27,436.24 0.03,0.13 0.03,0.12 0.03,0.11 0.03,0.11 0.03,0.11 0.03,0.09 0.03,0.1 0.03,0.08 0.03,0.09 0.03,0.07 0.03,0.08 0.03,0.06 0.03,0.07 0.03,0.06 0.03,0.05 0.03,0.06 0.03,0.04 0.03,0.05 0.04,0.04 0.03,0.04 0.04,0.03 0.03,0.04 0.04,0.03 0.04,0.02 0.04,0.03 0.05,0.02 0.04,0.02 0.05,0.02 0.05,0.02 0.05,0.02 0.05,0.01 0.05,0.02 c 0.45,0.1 2.1,0.1 3.14,0.1 5.04,0 7.28,-0.2 7.28,-4.09 0,-0.74 -0.2,-2.68 -0.4,-3.98 -0.05,-0.2 -0.15,-0.8 -0.15,-0.95 0,-0.3 0.15,-0.64 0.6,-0.64 0.55,0 0.64,0.39 0.74,1.14 l 1.35,8.67 c 0.05,0.2 0.1,0.7 0.1,0.85 0,0.54 -0.5,0.54 -1.35,0.54 h -27.64 c -1.2,0 -1.25,-0.05 -1.6,-0.99 l -2.98,-8.77 c -0.05,-0.1 -0.3,-0.8 -0.3,-0.9 0,-0.29 0.25,-0.54 0.59,-0.54 0.5,0 0.55,0.25 0.85,1.04 2.69,7.72 3.98,8.62 11.36,8.62 h 1.94 c 1.4,0 1.4,-0.2 1.4,-0.6 0,-0.3 -0.16,-0.9 -0.2,-1.04 l -6.68,-26.61 c -0.45,-1.84 -0.6,-2.39 -5.93,-2.39 -1.79,0 -2.09,0 -2.09,-0.94 0,-0.6 0.55,-0.6 0.85,-0.6 1.34,0 2.74,0.1 4.08,0.1 h 8.37 c 1.44,0 2.94,-0.1 4.33,-0.1 0.5,0 1.1,0 1.1,1 0,0.54 -0.4,0.54 -1.69,0.54 -1.25,0 -1.89,0 -3.19,0.1 -1.45,0.15 -1.84,0.3 -1.84,1.1 0,0.05 0,0.3 0.2,1.05 z"
         id="path4216" /><path
         style="fill:#000080;stroke-width:0"
         inkscape:connector-curvature="0"
         d="m 671.18,433.84 0.13,-0.61 0.13,-0.65 0.14,-0.66 0.14,-0.68 0.15,-0.7 0.15,-0.72 0.32,-1.47 0.34,-1.52 0.36,-1.56 0.37,-1.57 0.4,-1.57 0.41,-1.57 0.42,-1.55 0.45,-1.51 0.46,-1.46 0.24,-0.71 0.24,-0.69 0.24,-0.68 0.25,-0.65 0.25,-0.63 0.26,-0.61 0.26,-0.58 0.26,-0.56 c 1.1,-2.14 1.65,-3.23 2.15,-3.23 0.2,0 0.3,0 1.19,0.89 3.79,3.64 6.38,6.53 9.86,10.51 l 10.91,12.7 c -0.69,-4.23 -2.49,-15.44 -2.49,-21.27 0,-1.34 0.05,-2.64 0.2,-3.98 0.05,-0.55 0.25,-2 2.35,-2 2.08,0 5.87,2.2 5.87,3.19 0,0.3 -0.3,0.35 -0.44,0.35 -0.65,0 -1.65,-0.45 -2.2,-0.79 -1.19,0.15 -1.29,0.94 -1.4,2.09 -0.14,1.59 -0.14,3.09 -0.14,3.29 0,5.52 2.19,20.62 3.63,26.79 0.05,0.35 0.11,0.45 0.11,0.85 0,0.2 -0.06,0.75 -0.4,0.75 -0.2,0 -0.25,-0.05 -1.2,-1.15 -4.68,-5.68 -19.23,-23.11 -24.16,-27.3 -1.24,2.65 -2.14,4.54 -3.89,11.51 -1.44,5.63 -2.28,9.76 -3.13,14.6 -0.15,0.7 -0.4,2.04 -0.4,2.14 -0.15,0.25 -0.4,0.25 -0.55,0.25 -0.9,0 -2.99,-1.1 -3.14,-2.14 -0.6,-4.19 -1.59,-10.77 -5.08,-20.28 -3.98,-10.61 -5.08,-10.61 -6.03,-10.61 -0.64,0 -2.49,0.4 -3.58,1.4 -0.25,0.24 -0.35,0.24 -0.45,0.24 -0.7,0 -1.8,-2.23 -1.8,-3.63 0,-0.45 0,-1.05 1.6,-1.89 1.24,-0.65 2.44,-0.7 2.69,-0.7 3.09,0 6.03,7.12 7.02,9.66 2.34,5.63 5.13,13.5 6.53,20.67 z"
         id="path4218" /><path
         style="fill:#000080;stroke-width:0"
         inkscape:connector-curvature="0"
         d="m 767.54,417.46 -0.25,-0.2 -0.24,-0.19 -0.24,-0.2 -0.23,-0.19 -0.22,-0.2 -0.21,-0.19 -0.21,-0.19 -0.2,-0.18 -0.19,-0.19 -0.18,-0.18 -0.17,-0.18 -0.17,-0.18 -0.16,-0.17 -0.16,-0.17 -0.14,-0.16 -0.14,-0.17 -0.14,-0.15 -0.12,-0.16 -0.12,-0.15 -0.12,-0.14 -0.1,-0.14 -0.1,-0.13 -0.1,-0.13 -0.08,-0.12 -0.09,-0.11 -0.07,-0.11 -0.07,-0.1 -0.06,-0.1 -0.06,-0.09 -0.05,-0.08 -0.05,-0.07 -0.04,-0.06 c -2.24,-3.44 -2.64,-6.58 -2.64,-6.63 0,-0.6 0.6,-0.6 1,-0.6 0.85,0 0.89,0.1 1.09,1 1.15,4.88 4.09,9.07 9.72,11.35 0.59,0.2 0.74,0.31 0.74,0.65 0,0.35 -0.29,0.5 -0.4,0.55 -2.19,0.85 -8.22,3.34 -10.1,11.71 -0.16,0.59 -0.2,0.74 -1.05,0.74 -0.4,0 -1,0 -1,-0.59 0,-0.1 0.45,-3.24 2.54,-6.58 1,-1.49 2.44,-3.24 4.58,-4.83 h -37.01 c -0.89,0 -1.79,0 -1.79,-1 0,-0.99 0.9,-0.99 1.79,-0.99 z"
         id="path4220" /><path
         style="fill:#000080;stroke-width:0"
         inkscape:connector-curvature="0"
         d="m 802.35,421.64 v 1.74 12.31 c 0,1.04 0,2.69 3.09,2.69 4.23,0 6.33,-1.74 6.33,-7.62 0,-6.43 -1.55,-7.38 -9.42,-7.38 v -1.74 h 1.8 l 7.46,-11.55 c 0.5,-0.8 1.7,-2.75 2.24,-3.49 l 1.3,1.14 -8.97,13.9 c 0.35,0.05 0.55,0.1 0.95,0.1 0.75,0 1.85,0.1 2.59,0.2 0.75,-1.19 6.13,-10.06 10.26,-14.2 h -4.83 l -1.3,-1.14 c 0.36,-0.6 0.5,-0.6 1.65,-0.6 h 6.88 c 0.89,0 1.64,0 1.64,0.9 0,0.4 -0.3,0.74 -0.75,0.84 -1.84,0.4 -4.28,3.69 -5.48,5.28 -0.35,0.5 -2.84,3.79 -6.18,9.17 4.44,0.79 8.72,2.69 8.72,8.62 h -1.74 c 0,-3.24 -1.5,-5.78 -6.62,-6.73 h 0 c 1.39,1.85 1.54,4.49 1.54,6.68 0,2.39 -0.3,5.03 -1.9,7.07 2.05,-0.45 6.98,-1.99 6.98,-7.02 h 1.74 c 0,6.92 -7.32,9.31 -13.2,9.31 h -15.64 c -0.9,0 -1.69,0 -1.69,-0.89 0,-0.85 0.94,-0.85 1.34,-0.85 2.84,0 3.09,-0.35 3.09,-2.84 v -24.96 l 1.74,-0.1 v 25.16 c 0,0.5 0,1.84 -0.4,2.74 h 5.68 c -0.65,-0.8 -0.65,-1.79 -0.65,-2.54 v -25.36 c 0,-0.5 0,-1.84 0.4,-2.74 h -5.43 c 0.4,0.9 0.4,2.3 0.4,2.74 l -1.74,0.1 c 0,-2.49 -0.25,-2.84 -3.09,-2.84 -0.4,0 -1.34,0 -1.34,-0.84 0,-0.9 0.79,-0.9 1.69,-0.9 h 13.65 c 0.89,0 1.64,0 1.64,0.9 0,0.84 -0.84,0.84 -1.39,0.84 -2.84,0 -3.04,0.4 -3.04,2.84 z"
         id="path4222" /></g>  </g>
</svg>
